<?xml version="1.0" encoding="utf-8"?>
<!-- Generator: Adobe Illustrator 15.0.0, SVG Export Plug-In . SVG Version: 6.00 Build 0)  -->
<!DOCTYPE svg PUBLIC "-//W3C//DTD SVG 1.1//EN" "http://www.w3.org/Graphics/SVG/1.1/DTD/svg11.dtd">
<svg version="1.1" id="Layer_1" xmlns="http://www.w3.org/2000/svg" xmlns:xlink="http://www.w3.org/1999/xlink" x="0px" y="0px"
	 width="1040px" height="191.256px" viewBox="0 0 1040 191.256" enable-background="new 0 0 1040 191.256" xml:space="preserve">
<g opacity="0.09">
	<path fill="#FFFFFF" d="M1038.884,122.279c-2.383-0.591-4.95-0.172-7.461-0.274c-4.487-0.159-39.279-1.035-43.721-1.977
		c-6.179-1.308-7.828-4.924-4.124-9.525c1.104-1.357,2.418-2.582,3.673-3.809c1.229-1.186,2.858-3.024,2.781-3.917
		c-0.244-1.424-1.729-0.836-2.641-0.607c-2.999,0.776-5.759,2.073-8.545,3.305c-5.079,2.289-10.164,4.558-15.294,6.714
		c-1.267,0.535-4.992,2.005-4.524,0.792c1.068-2.452,2.09-4.82,2.142-7.404c0.089-3.294-1.291-4.534-4.976-4.277
		c-4.664,0.348-8.508,2.614-12.512,4.478c-3.14,1.494-6.107,3.225-9.163,4.879c2.121-3.211,0.996-6.647,0.825-6.924
		c-0.488-1.05-1.443-1.613-2.812-2.054c-4.155-1.344-8.01-0.603-11.284,1.77c-0.736,0.523-1.474,1.05-2.21,1.574
		c-0.136,0.075-0.238,0.155-0.357,0.244c-6.408,4.464-13.116,8.417-20.587,11.255c-2.962,1.103-10.761,3.616-10.148,2.935
		c1.562-1.726,4.333-6.784,4.515-10.178c0.197-3.729,2.157-6.328,5.255-8.459c1.188-0.832,2.283-1.798,3.384-2.731
		c1.317-1.104,2.988-2.383,2.665-3.995c-0.503-2.248-4.793-1.271-7.331,1.148c-7.133,6.837-15.418,12.262-24.851,16.3
		c-1.354,0.559-2.708,1.157-4.254,1.219c-1.945,0.067-3.449,0.922-5.053,1.848c-4.037,2.36-9.064,4.13-14.107,3.325
		c-0.311-0.182,1.873-1.903,2.325-2.309c0.768-0.7,4.971-4.965,6.443-8.581c1.406-3.315,1.1-4.929-1.712-7.342
		c-1.214-1.042-3.839-3.466-3.185-3.751c1.731-1.391,6.547-4.995,9.618-7.758c2.968-2.676,6.884-4.248,10.35-6.307
		c3.107-1.841,5.812-3.972,7.704-6.851c0.431-0.631,1.163-1.427,0.229-2.151c-0.752-0.586-1.66-0.449-2.5-0.03
		c-0.255,0.123-0.452,0.242-0.711,0.352c-12.69,6.035-25.038,12.684-37.38,19.266c-14.75,7.859-29.609,15.545-44.784,22.687
		c-1.137,0.523-3.606,1.754-3.881,0.939c-0.338-2.883,1.146-4.452,1.571-6.629c0.276-1.452,0.644-3.031-0.638-4.044
		c-1.234-1.006-3.04,0.114-5.137,1.033c-7.594,3.294-15.039,6.851-22.547,10.272c-0.872,0.389-2.312,0.856-2.63,0.143
		c-0.15-0.437,0.264-1.445,1.623-3.157c1.733-2.158,1.873-4.016,0.535-5.743c-1.442-1.868-2.714-1.73-5.251-0.778
		c-3.605,1.349-7.217,3.123-10.812,4.692c-2.651,1.165-8.12,4.076-8.432,2.898c-0.279-1.451,1.636-2.932,2.438-4.312
		c0.8-1.367,1.692-2.827,0.349-4.238c-1.37-1.416-3.186-1.831-5.308-1.235c-3.414,0.953-6.636,2.211-9.619,3.954
		c-3.875,2.299-7.637,4.729-11.812,6.532c-3.015,1.287-8.909,2.334-9.557,1.598c-0.464-0.869,1.053-2.434,1.811-3.481
		c3.284-4.454,7.403-7.476,12.22-10.381c0.725-0.446,2.086-1.082,2.935-0.337c0.742,0.633,0.332,4.259-0.973,5.789
		c-0.802,0.939-0.537,2.277,0.797,2.293c0.344-0.055,0.477-0.13,0.68-0.265c2.267-1.385,4.041-5.956,3.039-8.913
		c-0.941-1.857-2.708-2.666-5.271-2.188c-2.023,0.389-3.917,1.138-5.658,2.116c-3.227,1.781-6.367,3.746-9.619,5.582
		c-7.526,4.244-15.288,8.695-24.004,10.789c-1.433,0.334-2.692,0.739-4.421,0.272c-1.889-0.498,4.421-6.685,7.562-9.276
		c2.542-2.117,5.463-3.886,7.483-6.495c2.499-3.282,0.896-6.271-3.562-6.671c-3.424-0.322-6.47,0.694-9.393,2.167
		c-2.12,1.053-4.294,2.065-6.423,3.134c4.454-4.218,9.129-8.05,13.876-11.889c10.713-8.669,20.641-17.114,31.063-26.42
		c2.304-2.061,7.214-5.933,8.935-6.693c11.443-5.092,21.641-9.776,32.531-15.75c7.948-4.386,15.295-8.745,22.973-13.969
		c6.039-4.108,8.348-7.994,9.09-11.053c0.669-2.741-0.603-5.052-3.248-6.041c-2.702-1.023-6.158-0.691-9.229,0.281
		c-8.104,2.55-16.047,8.373-23.547,13.654c-10.819,7.637-19.898,17.079-29.875,25.535c-2.97,2.483-6.34,6.341-10.085,7.974
		c-13.785,5.987-26.75,11.319-41.22,16.007c-2.812,0.925-5.707,1.657-8.565,2.495c-1.22,0.355-0.411-0.372-0.222-0.566
		c6.224-6.577,12.641-12.884,21.871-16.27c5.297-1.941,9.925-4.609,11.984-9.754c0.33-0.818,0.851-2.097-0.443-2.933
		c-1.066-0.704-1.875-0.459-2.887,0.038c-4.434,2.241-8.415,5.041-12.392,7.888c-3.583,2.565-6.097,5.691-11.022,7.383
		c-10.227,3.506-25.318,0.933-30.304-10.207c-0.949-2.135-2.174-4.194-3.837-6.021c-1.264-1.365-2.534-1.31-3.898-0.287
		c-1.345,1.041-2.216,2.24-2.216,3.945c0,3.503,1.583,6.303,4.268,8.723c7.026,6.387,15.356,9.74,25.437,9.494
		c2.368-0.043,1.574-0.068,4.986-0.545c1.439-0.39-0.501,1.272-0.745,1.493c-9.037,7.966-10.583,10.816-22.829,14.615
		c-10.904,3.384-22.198,5.452-33.016,9.041c-1.156,0.383-1.778,0.096-2.37-0.837c-4.573-7.409-13.35-8.537-20.7-7.246
		c-13.386,2.349-26.275,10.716-30.324,25.882c-1.796,6.711,1.094,13.635,7.885,16.902c4.932,2.383,10.263,3.611,15.892,3.15
		c11.491-0.888,22.194-4.224,32.041-9.586c15.057-8.173,27.362-19.297,38.948-31.079c4.539-4.598,9.312-8.355,16.007-10.526
		c12.454-4.066,24.346-8.054,36.491-13.093c1.966-0.815,6.511-2.903,6.262-2.528c0.249,0.11-1.53,1.474-2.26,2.119
		c-5.419,4.861-10.68,8.798-16.138,13.613c-14.89,13.097-30.267,25.751-45.779,38.229c-2.703,2.174-5.829,3.969-7.859,6.788
		c-0.505,0.68-1.409,1.497-0.376,2.338c0.959,0.737,1.971,0.368,2.876-0.304c1.92-1.438,3.853-2.856,5.773-4.259
		c10.812-7.977,22.891-14.003,35.539-19.168c0.779-0.331,2.562-1.001,2.351,0.163c-0.031,0.858-3.772,4.432-5.977,6.412
		c-3.688,3.251-7.195,6.651-10.517,10.219c-1.85,1.977-1.364,3.696,1.183,4.807c1.594,0.695,3.237,0.721,4.947,0.454
		c6.102-0.97,11.676-3.212,17.154-5.702c2.475-1.109,4.913-2.298,7.389-3.439c0.918-0.534-1.137,2.309-1.873,3.284
		c-1.298,1.733-1.126,3.071,0.633,4.39c1.213,0.887,2.641,1.139,4.243,0.957c5.904-0.734,10.786-3.484,15.606-6.36
		c4.122-2.493,8.21-4.933,12.825-6.778c2.233-0.898,5.608-0.504,4.383,1.185c-2.423,2.82-4.887,5.653-7.333,8.507
		c-0.695,0.814-1.676,1.717-0.827,2.79c0.882,1.116,2.097,0.309,3.12-0.022c6.275-2.005,12.252-4.576,18.294-7.113
		c2.404-0.998,7.618-3.383,7.696-2.661c0.327,1.24-3.035,6.659-4.488,10.031c-0.326,1.07,0.639,1.239,2.19,0.99
		c2.734-0.458,7.922-2.711,10.448-3.549c6.401-2.142,12.353-5.073,18.573-7.572c1.157-0.464,3.751-1.185,3.403,0.055
		c-0.316,2.522-0.788,5.08-0.871,7.604c-0.078,2.433,0.565,2.747,2.988,1.808c1.867-0.723,3.684-1.545,5.494-2.373
		c12.949-6.025,24.991-13.386,37.546-20.008c7.093-3.722,24.104-12.473,22.558-10.926c-1.795,1.62-2.309,1.895-3.158,2.606
		c-1.235,1.031-2.169,1.559-3.461,2.537c-9.76,7.318-19.326,14.838-29.079,22.166c-4.852,2.524-17.417,9.132-23.782,12.888
		c-5.832,3.447-24.053,13.728-29.378,17.785c-2.968,2.293-5.525,4.104-6.487,7.506c-0.568,2.009,0.71,4.304,2.731,4.933
		c2.077,0.655,4.415,0.401,6.597-0.563c6.479-2.846,11.496-6.412,17.617-10.709c8.156-5.727,26.933-19.691,34.113-26.158
		c0.486-0.44,2.65-2.179,2.967-2.116c3.721-1.071,11.704,1.948,14.688,1.811c2.755-0.101,5.546-0.664,8.192-0.319
		c4.451,0.6,8.654,0.254,12.846-0.993c2.278-0.675,4.513-0.606,6.817-0.302c1.354,0.169,2.396,0.971,3.746,1.212
		c11.324,1.86,22.396,1.057,33.358-2.046c2.49-0.719,7.264-3.044,7.436-2.471c0.487,1.835,0.674,2.657,1.157,3.853
		c1.125,2.625,1.929,2.883,4.752,1.626c3.133-1.412,6.309-2.741,9.479-4.069c1.432-0.446,16.487-7.984,25.184-11.109
		c3.028-1.09,4.663,0.679,4.149,3.602c-0.182,1.041-0.777,1.962-1.343,2.87c-1.002,1.59-2.045,3.195-2.994,4.816
		c-0.545,0.955-1.567,2.042-0.54,3.071c1.044,1.051,3.767,0.304,5.452-0.742c7.804-4.813,15.846-8.038,24.364-11.423
		c0.539-0.244,1.629-0.53,1.883-0.312c0.291,0.196-0.871,1.416-1.369,1.945c-4.836,5.234-2.397,9.328-0.623,10.35
		c1.701,0.976,2.797,1.108,4.379,1.567c8.062,2.288,44.67,2.978,52.976,3.289c2.983,0.114,4.686-0.716,4.877-1.818
		C1040.902,123.05,1039.869,122.531,1038.884,122.279z M772.646,19.102c6.189-3.883,11.113-4.476,13.001-3.341
		c7.187,4.466-31.619,24.772-39.51,28.583c-3.806,1.848-8.998,3.84-12.841,5.6C740.984,41.577,767.443,22.375,772.646,19.102z
		 M602.332,99.182c-4.504,6.34-10.74,11.146-18.921,13.295c-1.163,0.321-2.325,0.226-2.979-0.521
		c-0.81-0.949-0.908-2.152-0.244-3.139c1.809-2.656,3.475-3.1,5.596-4.176c4.387-2.239,9.267-3.022,13.824-4.935
		C601.921,98.829,602.99,98.362,602.332,99.182z M646.482,85.401c-4.877,4.714-9.134,7.343-14.313,11.727
		c-8.634,7.299-17.702,14.085-27.409,20.176c-8.7,5.458-18.236,8.556-29.033,7.471c-3.886-0.396-7.403-1.559-10.573-3.631
		c-2.978-1.942-3.465-3.925-3.968-6.724c-0.831-4.037,1.395-8.98,3.984-12.681c5.737-8.144,13.712-13.517,24.445-15.188
		c4.211-0.661,11.353,0.266,13.577,6.666c-0.036,0.684-5.141,2.286-7.815,3.267c-5.901,2.179-12.042,3.845-17.098,7.538
		c-1.888,1.4-3.605,2.832-4.458,4.986c-1.775,4.513,0.728,7.983,6.105,8.293c2.228,0.106,4.389-0.31,6.524-0.932
		c8.965-2.548,15.326-7.829,19.48-15.325c1.567-2.789,3.655-4.628,6.979-5.746c10.781-3.612,20.478-5.774,31.209-9.527
		C644.817,85.542,647.73,84.268,646.482,85.401z M781.269,144.76c-5.095,3.582-11.564,8.021-15.891,9.296
		c-1.213,0.358-2.818,0.696-2.102-0.611c1.355-2.47,5.686-5.59,8.576-7.616c6.692-4.708,19.709-12.363,26.65-16.324
		c2.708-1.549,10.299-6.097,13.115-7.513C815.053,121.59,788.802,139.473,781.269,144.76z M836.22,117.252
		c-0.969,0.052-2.152-0.362-3.31-0.814c-3.314-1.32-3.538-2.895-1.001-5.146c3.792-3.321,8.073-5.937,12.177-8.862
		c1.836-1.303,3.958-1.502,6.106-0.426c1.701,0.866,2.386,2.153,2.033,3.812C851.147,110.86,842.208,117.319,836.22,117.252z
		 M874.623,118.621c-1.297-0.067-2.303-0.443-2.821-1.462c-0.665-1.253,0.426-1.965,1.292-2.582
		c3.735-2.742,8.207-4.386,12.099-6.896c0.918-0.592,2.707-1.827,2.884-1.713C888.46,112.936,881.923,118.917,874.623,118.621z
		 M929.648,105.858c0.598,0.067,1.391,0.148,1.11,1.334c-0.316,1.178-1.521,2.727-1.707,2.954c-1.032,1.394-2.417,2.244-4.01,3.033
		c-1.873,0.941-8.856,4.052-9.323,2.954c-0.451-0.669,0.083-2.685,0.971-3.928C919.516,107.921,924.517,105.31,929.648,105.858z"/>
	<path fill="#FFFFFF" d="M252.797,110.528c-0.019-1.829-1.848-1.614-3.214-1.687c-3.746-0.184-12.641,0.498-16.36,0.81
		c-1.699,0.153-3.353,0.426-5.321-0.15c-0.244-0.067-0.296-0.363-0.108-0.513c0.598-0.488,0.965-0.8,1.459-1.178
		c6.415-4.811,12.845-9.652,19.282-14.436c11.408-8.446,21.765-17.735,32.361-26.987c12.356-10.753,26.561-23.809,34.728-33.81
		c5.938-7.629,12.159-14.647,15.718-23.807c2.321-4.23-0.494-8.443-5.716-8.758c-0.869-0.041-1.764,0.016-2.654,0.122
		c-3.02,0.341-5.819,1.323-8.576,2.486c-10.895,4.554-21.143,10.105-30.716,16.67c-9.518,6.491-18.394,13.581-26.332,21.659
		c-5.301,5.408-10.863,12.049-15.521,17.946c-0.723,0.912-0.643,1.118-2.521,1.342c-3.856,0.46-16.235,2.072-18.073,1.477
		c-4.928-1.604-9.213-0.583-10.412,4.015c-0.322,1.126,0.467,3.401,1.609,4.183c1.282,0.877,4.397,0.95,5.617,0.168
		c3.896-2.508,6.349-2.704,10.759-3.719c2.738-0.632,6.326-1.4,8.634-0.999c0.751-0.102-0.606,2.372-1.215,6.03
		c-0.942,5.687,2.168,10.455,8.343,12.036c1.183,0.317,2.344,0.667,3.967,1.104c-2.006,1.671-3.663,3.126-5.385,4.489
		c-9.839,7.884-20.224,15.112-30.906,22.051c-1.632,1.063-2.583,1.012-3.971,1.152c-9.699,0.92-19.405,1.791-29.008,3.366
		c-20.228,3.303-40.187,7.668-59.849,13.118c-17.535,4.855-34.833,10.354-52,16.146c-15.366,5.155-30.757,10.205-45.099,17.497
		c-7.299,3.719-16.144,8.576-19.603,13.691c-4.798,5.551-3.108,10.687,4.063,13.097c8.998,3.028,18.364,2.219,27.414,1.155
		c14.488-1.679,28.701-4.836,42.727-8.479c11.482-2.967,22.855-6.323,34.005-10.179c5.451-1.87,10.801-3.979,16.156-6.057
		c5.299-2.047,10.615-4.033,15.729-6.39c15.837-7.317,31.474-15.001,46.22-24.067c7.403-4.54,18.919-12.534,26.039-17.385
		c3.533-2.413,4.418-2.89,7.996-3.699c2.728-0.615,6.988-1.085,12.203-1.157c3.097-0.047,11.412-0.013,14.507-0.368
		C251.352,112.35,252.83,112.119,252.797,110.528z M254.081,51.531c13.744-16.78,30.404-30.612,50.659-40.732
		c4.122-2.068,8.298-3.959,12.644-5.602c0.4-0.154,0.791-0.316,1.251-0.41c2.244-0.488,4.542-1.03,6.38,0.909
		c1.465,1.549,1.268,3.546-0.34,6.028c-8.219,12.481-18.498,23.441-30.109,33.474c-10.705,9.25-21.356,18.562-32.043,27.841
		c-0.438,0.363-0.892,0.718-1.632,1.288c-1.873-6.824-4.445-11.472-13.016-13.948c-0.124-0.04-0.19-0.173-0.127-0.276
		C249.533,57.009,251.827,54.263,254.081,51.531z M246.359,80.038c-2.769-1.169-4.691-4.486-4.749-6.848
		c-0.084-2.338,0.146-5.008,1.314-7.053c0.907-1.583,2.443-1.222,3.603-1.204c3.797,0.073,9.095,5.855,9.059,9.404
		C255.509,79.814,251.528,82.243,246.359,80.038z M201.999,118.746c-18.886,12.255-40.025,25.635-60.731,35.264
		c-18.282,8.503-37.008,16.031-56.563,21.91c-14.064,4.212-28.354,7.573-42.927,9.941c-8.384,1.392-16.817,2.333-25.379,1.726
		c-2.148-0.149-4.18-0.547-6.233-1.11c-5.528-1.582-6.195-5.712-3.597-9.12c2.624-3.287,4.656-4.47,7.427-6.216
		c11.209-7.066,23.939-11.971,36.395-16.744c20.642-7.909,41.627-14.337,62.984-20.413c16.394-4.687,32.988-8.638,49.826-11.688
		c13.096-2.376,26.324-4.14,39.583-5.738C206.956,116.054,204.413,117.18,201.999,118.746z"/>
	<path fill="#FFFFFF" d="M460.295,111.96c5.117-7.521,12.771-12.758,19.826-18.68c7.518-6.309,12.655-11.175,18.942-17.886
		c0.863-0.911,4.516-0.608,5.685-0.591c5.254,0.053,10.495,0.071,15.723,0.071c13.024,0,25.959,1.317,38.968,0.436
		c1.743-0.114,5.091-0.409,4.837-1.395c-0.244-1.204-1.161-1.031-1.925-1.047c-6.619-0.149-13.266-0.349-19.9-0.38
		c-9.923-0.035-37.645,0.104-39.181-0.864c-1.006-1.001,7.473-6.09,7.313-8.825c-0.326-1.646-4.761,0.307-6.618,1.63
		c-2.2,1.602-2.766,2.316-4.865,4.006c-0.772,0.635-2.711,2.863-3.787,2.896c-2.891,0.151-6.154-0.292-9.113-0.483
		c-2.606-0.155-4.345-0.163-5.576-0.155c-1.052-0.104-1.243-0.195-2.34-0.296c1.917-1.388,5.118-3.957,6.322-5.067
		c2.794-2.583,5.538-5.234,6.615-8.863c0.788-2.718-0.414-3.849-3.466-3.336c-2.24,0.374-4.045,1.578-5.908,2.628
		c-5.877,3.37-11.332,7.918-16.368,12.184c-1.657,1.405-1.723,0.84-3.259,0.638c-5.831-0.735-12.03-1.387-17.816-2.23
		c-2.429-0.353-7.092-1.463-7.637-0.36c-0.201,1.032,3.082,1.544,4.385,2.043c4.225,1.61,18.396,2.656,20.559,3.868
		c-0.165,1.414-13.975,14.868-19.858,20.987c-4.414,4.589-8.392,9.574-14.081,13.076c-4.758,2.924-9.565,5.8-14.511,8.492
		c-4.712,2.569-9.702,4.562-14.792,6.437c-1.532,0.545-2.884,0.703-4.134-0.495c-1.281-1.279-0.294-2.678,0.296-3.635
		c1.984-3.209,5.951-7.081,9.781-10.114c4.474-3.521,9.066-6.949,13.533-10.49c2.225-1.756,2.307-2.853,0.566-4.934
		c-0.754-0.902-1.517-1.702-1.551-2.958c-0.035-0.989-1.05-1.534-1.908-1.836c-2.42-0.877-4.97-1.282-7.503-0.375
		c-4.2,1.506-8.277,3.318-12.214,5.294c-10.48,5.291-18.379,13.021-25.235,21.732c-2.017,2.571-3.762,5.24-4.633,8.326
		c-0.776,2.729,0.446,4.286,3.437,4.712c5.563,0.802,8.833-0.275,12.754-3.157c0.786-0.556,2.016-1.393,3.101-2
		c0.595-0.327,1.392-0.109,1.665,0.475c1.234,2.7,4.329,4.636,7.862,4.003c1.975-0.327,3.984-0.565,5.941-1.165
		c5.495-1.704,10.433-4.4,15.319-7.162c2.018-1.163,4.048-2.332,6.073-3.502c0.165-0.099,0.388,0.044,0.331,0.212
		c-0.351,1.126-0.962,1.987-1.517,2.906c-1.273,2.096-2.718,4.135-2.911,6.636c-0.093,1.67,0.5,2.726,2.51,3.102
		c2.025,0.374,4.027,0.603,6.061,0.249c6.955-1.322,13.225-4.072,19.188-7.454c2.207-1.252,4.313-2.673,6.963-3.7
		c-0.257,1.29-0.47,2.319-0.665,3.329c-0.445,2.752,0.102,3.621,3.045,4.386c2.927,0.794,5.764,0.099,8.585-0.737
		c3.562-1.083,6.617-2.712,9.919-4.23c2.361-1.084,2.776-1.121,3.042,0.913c0.181,1.412,0.992,2.021,2.221,2.712
		c2.836,1.659,5.508,1.229,8.162-0.593c1.021-0.699,15.821-10.573,23.187-14.064c0.362,0.68,0,1.076-0.244,1.484
		c-1.705,2.754-3.841,5.209-6.26,7.438c-1.568,1.443-3.122,2.963-4.798,4.545c-0.898,0.861-1.093,1.843-0.406,2.849
		c0.819,1.215,1.866,0.478,2.791,0.119c1.209-0.498,7.551-6.075,8.588-6.812c2.461-1.873,2.904-2.213,7.102-5.694
		c4.4-3.696,10.375-7.377,16.571-3.958c0.109,0.044,1.223,0.666,1.716,0.631c1.546,0.176,2.547-2.574,3.823-4.67
		c1.011-1.676-0.296-3.762-1.687-5.318c-1.375-1.528-3.206-0.747-4.877-0.179c-1.172,0.418-2.205,0.996-3.276,1.588
		c-2.824,1.621-5.237,3.828-8.417,5.279c-1.218-1.271-0.64-2.447-0.375-3.608c0.221-0.988,0.019-1.92-1.169-2.042
		c-2.229-0.221-4.451-0.534-6.604,0.908c-4.83,3.248-9.501,6.718-14.231,10.106c-4.054,2.905-8.18,5.626-12.802,7.762
		c-2.539,1.178-3.367,0.697-3.953-0.119c-0.385-0.545-0.285-1.365-0.204-1.89c0.133-0.845,1.052-1.104,1.618-1.491
		c3.564-2.412,6.208-4.08,9.153-6.516c3.865-3.235,7.385-6.719,9.803-10.988c0.555-0.963,1.115-1.886,0.356-2.918
		c-0.777-1.087-3.104-0.996-4.217-0.815c-3.087,0.459-5.061,1.453-7.501,3.305c-5.013,3.762-8.298,8.78-11.459,13.831
		c-0.471,0.753-1.101,2.338-2.051,2.74c-3.493,1.473-4.917,2.428-8.01,3.651c-2.521,1.002-4.789,2.393-7.6,2.732
		c-2.609,0.318-3.694-0.651-3.149-2.983C458.375,114.65,459.375,113.327,460.295,111.96z M382.983,117.54
		c-5.212,2.898-9.119,3.984-10.244,3.713c-0.62-0.338,1.313-3.501,2.353-5.122c3.265-5.073,12.368-13.994,20.835-19.271
		c4.487-2.781,12.509-6.534,14.945-5.379c1.651,1.161-0.224,2.893-1.308,3.961c-4.021,4.056-8.911,7.273-13.246,11.058
		C391.985,110.306,388.147,114.671,382.983,117.54z M497.595,96.077c-0.867,5.144-8.612,10.418-15.195,14.182
		c0.092-0.221,0.104-0.431,0.209-0.664C485.625,102.694,497.225,94.77,497.595,96.077z M487.185,55.918
		c-0.038,1.94-5.778,7.769-12.92,14.135c-1.638-0.166-3.276-0.315-4.92-0.479C475.81,63.492,483.391,56.914,487.185,55.918z
		 M458.826,79.69c1.268-1.174,4.149-4.027,7.654-7.398c1.49,0.197,3.064,0.397,4.609,0.562
		c-7.949,6.861-16.773,13.826-21.162,16.754C452.283,86.08,455.705,82.554,458.826,79.69z M443.437,115.797
		c-4.618,2.951-9.258,5.962-14.891,7.25c-1.305,0.286-2.61,0.815-3.624-0.427c-1.009-1.259-0.969-2.624-0.161-3.872
		c1.123-1.719,2.354-3.397,3.689-4.998c6.696-7.974,14.815-14.65,23.278-21.047c7.299-5.508,14.863-11.379,21.608-17.431
		c1.2-1.055,2.511-1.602,4.26-1.597c4.503,0.048,10.171,0.109,15.165,0.72c-2.494,2.438-6.149,5.898-8.443,8.081
		C471.582,94.503,458.468,106.127,443.437,115.797z"/>
	<path fill="#FFFFFF" d="M446.822,54.984c6.148-1.612,14.036-4.128,20.733-2.5c1.396,0.329,3.179-0.125,3.31-1.691
		c-0.128-1.178-2.062-1.785-3.493-2.018c-3.365-0.535-7.289-0.431-10.308,0.061c-16.853,2.746-30.936,8.365-45.658,16.171
		c-8.32,4.428-16.35,9.232-24.05,14.582c-5.398,3.762-10.908,7.391-16.204,11.29c-5.588,4.077-11.264,8.059-16.9,12.072
		c-0.209,0.138-1.054,0.565-0.395-0.319c3.073-3.507,5.996-7.118,9.238-10.488c8.333-8.654,16.746-17.267,25.217-25.81
		c4.605-4.645,8.93-9.539,14.798-13.055c4.684-2.803,8.88-6.203,12.965-9.627c1.963-1.617,4.014-3.195,5.38-5.302
		c0.499-0.797,1.232-1.731,0.229-2.639c-0.979-0.847-2.352-0.685-3.455-0.172c-0.609,0.284-1.074,0.565-1.613,0.97
		c-3.294,2.438-6.891,4.624-9.797,7.369c-8.654,8.151-18.204,15.276-28.366,21.784c-7.545,4.782-15.165,9.499-22.712,14.272
		c-3.512,2.237-7.767,4.191-10.218,5.804c1.304-1.341,5.138-4.718,7.349-6.789c6.734-6.322,9.845-9.446,16.725-16.812
		c2.157-2.564,6.077-5.845,8.466-7.815c6.021-5.011,12.933-8.919,19.718-12.992c6.313-3.781,12.523-7.647,17.282-13.066
		c2.093-2.352,1.062-4.009-1.138-5.071c-1.68-0.476-3.875,0.099-5.256,0.605c-2.235,0.784-3.164,1.302-5.274,2.351
		c-7.883,3.966-13.902,9.869-19.953,15.773c-4.322,4.229-8.202,8.878-13.245,12.504c-8.378,5.987-18.187,9.25-28.181,12.073
		c-6.154,1.755-15.154,4.206-21.367,5.788c-1.867,0.479-4.741,1.566-3.347,3.504c1.844,2.011,24.385-5.385,36.969-9.542
		c1.237-0.345,3.5-1.203,3.285-0.963c-7.732,8.093-16.83,15.61-25.724,22.619c-12.582,9.941-25.779,19.152-39.433,27.827
		c-7.887,5.02-15.378,10.573-24.638,13.603c-2.231,0.719-5.021,1.735-6.462,3.567c-0.553,0.705-0.971,1.294,0.035,2.376
		c0.891,0.916,2.708,0.604,3.693,0.279c2.847-0.926,4.566-1.905,7.19-3.283c3.647-1.92,5.868-4.633,9.999-6.98
		c5.371-3.057,10.793-6.143,16.232-9.157c16.484-9.093,33.305-17.682,49.509-27.229c7.208-4.269,14.38-8.549,21.353-13.108
		c2.702-1.78,5.196-3.85,8.275-5.182c-3.944,4.781-7.91,9.498-12.174,14.005c-12.212,12.925-24.556,25.78-36.844,38.637
		c-0.777,0.797-1.463,1.599-1.801,2.646c-0.538,1.65,0.351,2.657,2.221,2.366c0.919-0.111,1.567-0.65,2.239-1.209
		c10.909-9.074,21.668-18.293,32.894-27.051c10.699-8.34,20.645-15.66,33.595-23.216C413.65,67.495,428.549,59.78,446.822,54.984z
		 M412.048,25.942c-3.57,5.187-32.793,24.287-33.045,24.39C386.29,42.515,402.362,28.144,412.048,25.942z"/>
	<path fill="#FFFFFF" d="M251.755,119.571c-3.062-0.116-7.011,3.821-6.76,6.578c0.243,2.252,1.7,3.225,3.959,3.015
		c3.516-0.109,7.241-3.196,7.067-5.857C255.872,120.957,254.237,119.701,251.755,119.571z"/>
</g>
<g display="none">
	<path display="inline" fill="#041E42" d="M139.574,51.222v0.024c0,0.868,0.183,1.442,1.1,1.442c0.66,0,1.112-0.44,1.112-1.173
		v-6.148h1.552v6.026c0,1.601-1.039,2.676-2.664,2.676c-2.054,0-2.652-1.332-2.652-2.811v-0.037L139.574,51.222L139.574,51.222z
		 M256.66,59.826H138.022v-1.625H256.66V59.826z"/>
	<path display="inline" fill="#041E42" d="M145.854,53.923h-1.491v-1.528h1.491V53.923z"/>
	<path display="inline" fill="#041E42" d="M157.354,53.923h-1.711l-1.516-5.354l-1.466,5.354h-1.711l-1.674-8.556h1.601l1.039,6.209
		l1.577-5.634h1.32l1.589,5.634l1.027-6.209h1.601L157.354,53.923z"/>
	<path display="inline" fill="#041E42" d="M164.402,53.923l-0.513-1.699h-3.043l-0.513,1.699h-1.577l2.762-8.556h1.723l2.762,8.556
		H164.402z M162.361,47.25l-1.076,3.581h2.164L162.361,47.25z"/>
	<path display="inline" fill="#041E42" d="M168.482,45.367v7.15h3.801v1.406h-5.353v-8.556H168.482z"/>
	<path display="inline" fill="#041E42" d="M175.398,46.773v7.15h-1.552v-7.15h-2.347v-1.406h6.27v1.406H175.398z"/>
	<path display="inline" fill="#041E42" d="M178.818,45.367h5.671v1.406h-4.106v2.041h3.447v1.418h-3.447v2.285h4.106v1.406h-5.671
		V45.367z"/>
	<path display="inline" fill="#041E42" d="M190.145,53.923l-1.503-3.19h-1.466v3.19h-1.552v-8.556h3.605
		c1.992,0,2.616,1.234,2.616,2.591c0,1.222-0.562,2.261-1.699,2.554l1.675,3.41L190.145,53.923L190.145,53.923z M187.175,46.773
		v2.554h1.821c0.893,0,1.259-0.513,1.259-1.344c0-0.721-0.281-1.21-1.259-1.21H187.175z"/>
	<path display="inline" fill="#041E42" d="M199.162,46.773v7.15h-1.552v-7.15h-2.347v-1.406h6.27v1.406H199.162z"/>
	<path display="inline" fill="#041E42" d="M207.373,53.923v-3.667h-3.239v3.667h-1.552v-8.556h1.552v3.447h3.239v-3.447h1.552v8.556
		H207.373z"/>
	<path display="inline" fill="#041E42" d="M210.071,49.657c0-3.202,1.333-4.449,3.459-4.449c2.14,0,3.447,1.234,3.447,4.449
		c0,3.19-1.308,4.424-3.447,4.424C211.403,54.082,210.071,52.847,210.071,49.657z M211.66,49.657c0,2.139,0.55,2.995,1.87,2.995
		c1.308,0,1.87-0.855,1.87-2.995c0-2.163-0.562-3.019-1.87-3.019C212.21,46.638,211.66,47.494,211.66,49.657z"/>
	<path display="inline" fill="#041E42" d="M224.808,53.923l0.072-6.392l-2.113,5.683h-1.088l-2.127-5.683l0.074,6.392h-1.504v-8.556
		h2.127l1.979,5.512l1.968-5.512h2.127v8.556H224.808z"/>
	<path display="inline" fill="#041E42" d="M229.46,50.928v2.995h-1.551v-8.556h3.166c1.82,0,2.75,1.112,2.75,2.762
		c0,1.638-0.93,2.799-2.75,2.799H229.46z M229.46,46.773v2.75h1.442c0.966,0,1.356-0.611,1.356-1.418
		c0-0.819-0.391-1.332-1.356-1.332H229.46z"/>
	<path display="inline" fill="#041E42" d="M234.726,51.332h1.602c0,0.636,0.219,1.345,1.551,1.345c1.455,0,1.676-0.66,1.676-1.198
		c0-0.636-0.379-0.929-1.002-1.039l-1.711-0.318c-1.26-0.232-2.006-0.941-2.006-2.347c0-1.1,0.611-2.566,3.031-2.566
		c2.506,0,3.092,1.381,3.092,2.566h-1.601c0-0.586-0.183-1.198-1.517-1.198c-1.125,0-1.43,0.587-1.43,1.076
		c0,0.525,0.354,0.892,0.893,1.002l1.576,0.293c1.345,0.257,2.25,1.002,2.25,2.457c0,1.369-0.99,2.676-3.276,2.676
		C235.423,54.082,234.726,52.725,234.726,51.332z"/>
	<path display="inline" fill="#041E42" d="M242.069,49.657c0-3.202,1.333-4.449,3.459-4.449c2.14,0,3.447,1.234,3.447,4.449
		c0,3.19-1.308,4.424-3.447,4.424C243.401,54.082,242.069,52.847,242.069,49.657z M243.658,49.657c0,2.139,0.551,2.995,1.87,2.995
		c1.308,0,1.87-0.855,1.87-2.995c0-2.163-0.562-3.019-1.87-3.019C244.208,46.638,243.658,47.494,243.658,49.657z"/>
	<path display="inline" fill="#041E42" d="M255.083,53.923l-3.483-5.94l0.049,5.94h-1.528v-8.556h1.602l3.459,5.854l-0.049-5.854
		h1.527v8.556H255.083z"/>
	<path display="inline" fill="#41B6E6" d="M268.218,53.923h-1.711l-1.516-5.354l-1.467,5.354h-1.711l-1.674-8.556h1.602l1.038,6.209
		l1.577-5.634h1.32l1.589,5.634l1.026-6.209h1.602L268.218,53.923z M327.044,59.826h-66.906v-1.625h66.906V59.826L327.044,59.826z"
		/>
	<path display="inline" fill="#41B6E6" d="M270.475,49.657c0-3.202,1.333-4.449,3.459-4.449c2.14,0,3.446,1.234,3.446,4.449
		c0,3.19-1.307,4.424-3.446,4.424C271.808,54.082,270.475,52.847,270.475,49.657z M272.064,49.657c0,2.139,0.55,2.995,1.87,2.995
		c1.308,0,1.87-0.855,1.87-2.995c0-2.163-0.562-3.019-1.87-3.019C272.615,46.638,272.064,47.494,272.064,49.657z"/>
	<path display="inline" fill="#41B6E6" d="M283.048,53.923l-1.502-3.19h-1.467v3.19h-1.552v-8.556h3.604
		c1.992,0,2.617,1.234,2.617,2.591c0,1.222-0.562,2.261-1.699,2.554l1.675,3.41L283.048,53.923L283.048,53.923z M280.08,46.773
		v2.554h1.82c0.893,0,1.26-0.513,1.26-1.344c0-0.721-0.281-1.21-1.26-1.21H280.08z"/>
	<path display="inline" fill="#41B6E6" d="M287.434,45.367v7.15h3.801v1.406h-5.353v-8.556H287.434z"/>
	<path display="inline" fill="#41B6E6" d="M292.466,53.923v-8.556h3.252c2.188,0,3.447,1.418,3.447,4.217
		c0,2.848-1.295,4.339-3.398,4.339H292.466z M295.511,46.773h-1.491v5.744h1.491c1.503,0,2.078-1.087,2.078-2.921
		C297.587,47.983,297.112,46.773,295.511,46.773z"/>
	<path display="inline" fill="#41B6E6" d="M307.925,53.923h-1.711l-1.516-5.354l-1.466,5.354h-1.711l-1.674-8.556h1.601l1.039,6.209
		l1.577-5.634h1.319l1.59,5.634l1.027-6.209h1.6L307.925,53.923z"/>
	<path display="inline" fill="#41B6E6" d="M310.623,53.923v-8.556h1.553v8.556H310.623z"/>
	<path display="inline" fill="#41B6E6" d="M313.519,53.923v-8.556h3.25c2.189,0,3.447,1.418,3.447,4.217
		c0,2.848-1.295,4.339-3.396,4.339H313.519z M316.562,46.773h-1.49v5.744h1.49c1.504,0,2.078-1.087,2.078-2.921
		C318.64,47.983,318.164,46.773,316.562,46.773z"/>
	<path display="inline" fill="#41B6E6" d="M321.375,45.367h5.672v1.406h-4.105v2.041h3.445v1.418h-3.445v2.285h4.105v1.406h-5.672
		V45.367z"/>
</g>
</svg>
