<?xml version="1.0" encoding="utf-8"?>
<!-- Generator: Adobe Illustrator 15.0.0, SVG Export Plug-In . SVG Version: 6.00 Build 0)  -->
<!DOCTYPE svg PUBLIC "-//W3C//DTD SVG 1.1//EN" "http://www.w3.org/Graphics/SVG/1.1/DTD/svg11.dtd">
<svg version="1.1" id="Layer_1" xmlns="http://www.w3.org/2000/svg" xmlns:xlink="http://www.w3.org/1999/xlink" x="0px" y="0px"
	 width="1040px" height="1040px" viewBox="0 0 1040 1040" enable-background="new 0 0 1040 1040" xml:space="preserve">
<g id="Background">
</g>
<g id="Objects">
	<g opacity="0.09">
		<g>
			<g display="none" opacity="0.5">
				<g display="inline">
					<g>
						<polygon stroke="#000000" stroke-miterlimit="10" points="245.655,1012.218 179.623,904.599 180.632,903.972 
							246.665,1011.591 						"/>
					</g>
					<g>
						
							<rect x="149.836" y="896.593" transform="matrix(-0.8747 -0.4846 0.4846 -0.8747 -182.1637 1868.6541)" stroke="#000000" stroke-miterlimit="10" width="1.189" height="122.555"/>
					</g>
					<g>
						
							<rect x="-92.43" y="665.599" transform="matrix(-0.4442 -0.8959 0.8959 -0.4442 -546.625 993.2867)" stroke="#000000" stroke-miterlimit="10" width="254.425" height="1.189"/>
					</g>
					<g>
						
							<rect x="-24.779" y="579.096" transform="matrix(-0.9755 -0.2201 0.2201 -0.9755 69.5821 1167.1323)" stroke="#000000" stroke-miterlimit="10" width="249.175" height="1.188"/>
					</g>
					<g>
						
							<rect x="155.689" y="585.403" transform="matrix(-0.7998 -0.6003 0.6003 -0.7998 -135.0942 1342.2515)" stroke="#000000" stroke-miterlimit="10" width="1.189" height="216.501"/>
					</g>
					<g>
						
							<rect x="31.126" y="484.819" transform="matrix(-0.4193 -0.9078 0.9078 -0.4193 -206.304 838.8677)" stroke="#000000" stroke-miterlimit="10" width="268.01" height="1.188"/>
					</g>
					<g>
						
							<rect x="94.639" y="404.66" transform="matrix(-0.7877 -0.616 0.616 -0.7877 39.9442 824.2733)" stroke="#000000" stroke-miterlimit="10" width="134.697" height="1.189"/>
					</g>
					<g>
						
							<rect x="137.977" y="526.343" transform="matrix(-0.0392 -0.9992 0.9992 -0.0392 -299.7737 765.6312)" stroke="#000000" stroke-miterlimit="10" width="160.455" height="1.189"/>
					</g>
					<g>
						
							<rect x="255.665" y="265.464" transform="matrix(-0.9021 -0.4315 0.4315 -0.9021 331.7302 796.853)" stroke="#000000" stroke-miterlimit="10" width="1.189" height="190.662"/>
					</g>
					<g>
						
							<rect x="165.142" y="175.403" transform="matrix(-0.8331 -0.5532 0.5532 -0.8331 149.9282 601.5779)" stroke="#000000" stroke-miterlimit="10" width="1.188" height="205.526"/>
					</g>
					<g>
						
							<rect x="204.34" y="233.098" transform="matrix(-0.6732 -0.7395 0.7395 -0.6732 262.2238 583.2786)" stroke="#000000" stroke-miterlimit="10" width="111.328" height="1.19"/>
					</g>
					<g>
						<polygon stroke="#000000" stroke-miterlimit="10" points="108.552,364.241 1.99,255.702 2.744,254.782 109.307,363.322 						
							"/>
					</g>
					<g>
						<polygon stroke="#000000" stroke-miterlimit="10" points="2.783,255.667 1.951,254.817 48.734,177.798 49.565,178.648 						
							"/>
					</g>
					<g>
						
							<rect x="-18.428" y="270.395" transform="matrix(-0.3066 -0.9518 0.9518 -0.3066 -154.6581 429.3139)" stroke="#000000" stroke-miterlimit="10" width="194.943" height="1.189"/>
					</g>
					<g>
						
							<rect x="200.779" y="794.754" transform="matrix(-0.9279 -0.3728 0.3728 -0.9279 70.7543 1716.8529)" stroke="#000000" stroke-miterlimit="10" width="1.189" height="113.664"/>
					</g>
					<g>
						
							<rect x="-5.314" y="869.74" transform="matrix(0.0692 -0.9976 0.9976 0.0692 -789.0856 894.9474)" stroke="#000000" stroke-miterlimit="10" width="180.721" height="1.188"/>
					</g>
					<g>
						
							<rect x="-121.33" y="673.03" transform="matrix(-0.1948 -0.9808 0.9808 -0.1948 -657.8546 807.2051)" stroke="#000000" stroke-miterlimit="10" width="247.455" height="1.189"/>
					</g>
					<g>
						
							<rect x="-5.053" y="847.052" transform="matrix(-0.4728 -0.8812 0.8812 -0.4728 -666.3617 1296.6055)" stroke="#000000" stroke-miterlimit="10" width="119.509" height="1.189"/>
					</g>
					<g>
						
							<rect x="130.924" y="853.655" transform="matrix(0.0403 -0.9992 0.9992 0.0403 -775.3046 997.3094)" stroke="#000000" stroke-miterlimit="10" width="1.187" height="97.202"/>
					</g>
					<g>
						
							<rect x="8.988" y="848.988" transform="matrix(-0.8149 -0.5796 0.5796 -0.8149 -305.0429 1601.7479)" stroke="#000000" stroke-miterlimit="10" width="188.508" height="1.189"/>
					</g>
					<g>
						
							<rect x="-51.419" y="647.024" transform="matrix(-0.533 -0.8461 0.8461 -0.533 -352.8255 1100.5029)" stroke="#000000" stroke-miterlimit="10" width="357.412" height="1.189"/>
					</g>
					<g>
						
							<rect x="258.12" y="651.078" transform="matrix(-0.8865 -0.4628 0.4628 -0.8865 150.5194 1495.7278)" stroke="#000000" stroke-miterlimit="10" width="1.188" height="156.649"/>
					</g>
					<g>
						
							<rect x="17.017" y="551.135" transform="matrix(-0.8632 -0.5048 0.5048 -0.8632 -42.5255 1091.9373)" stroke="#000000" stroke-miterlimit="10" width="219.286" height="1.188"/>
					</g>
					<g>
						
							<rect x="59.113" y="232.723" transform="matrix(-0.9783 -0.207 0.207 -0.9783 42.3568 736.4467)" stroke="#000000" stroke-miterlimit="10" width="1.189" height="266.568"/>
					</g>
					<g>
						
							<rect x="-110.913" y="699.746" transform="matrix(-0.3413 -0.94 0.94 -0.3413 -516.0714 1039.0216)" stroke="#000000" stroke-miterlimit="10" width="433.892" height="1.188"/>
					</g>
					<g>
						
							<rect x="85.59" y="254.633" transform="matrix(-0.983 -0.1834 0.1834 -0.983 334.8112 541.4216)" stroke="#000000" stroke-miterlimit="10" width="213.707" height="1.189"/>
					</g>
					<g>
						
							<rect x="27.844" y="340.62" transform="matrix(-0.5174 -0.8558 0.8558 -0.5174 -62.5636 647.1431)" stroke="#000000" stroke-miterlimit="10" width="246.719" height="1.188"/>
					</g>
					<g>
						
							<rect x="164.179" y="212.737" transform="matrix(-0.641 -0.7675 0.7675 -0.641 -25.5898 759.2681)" stroke="#000000" stroke-miterlimit="10" width="1.188" height="345.764"/>
					</g>
					<g>
						
							<rect x="40.08" y="225.929" transform="matrix(-0.9319 -0.3626 0.3626 -0.9319 252.6809 500.4733)" stroke="#000000" stroke-miterlimit="10" width="266.458" height="1.188"/>
					</g>
					<g>
						
							<rect x="66.742" y="985.41" transform="matrix(-0.6355 -0.7721 0.7721 -0.6355 -598.0784 1689.6646)" stroke="#000000" stroke-miterlimit="10" width="66.103" height="1.189"/>
					</g>
					<g>
						<polygon stroke="#000000" stroke-miterlimit="10" points="245.883,1012.431 120.525,1012.054 121.078,1011.001 
							246.437,1011.379 						"/>
					</g>
					<g>
						
							<rect x="70.385" y="958.578" transform="matrix(-0.8875 -0.4608 0.4608 -0.8875 -315.5747 1874.1366)" stroke="#000000" stroke-miterlimit="10" width="1.189" height="34.022"/>
					</g>
					<g>
						
							<rect x="156.274" y="723.234" transform="matrix(0.1396 -0.9902 0.9902 0.1396 -646.8049 834.6385)" stroke="#000000" stroke-miterlimit="10" width="1.189" height="132.545"/>
					</g>
					<g>
						
							<rect x="188.413" y="619.894" transform="matrix(-0.7503 -0.6611 0.6611 -0.7503 -184.9716 1490.396)" stroke="#000000" stroke-miterlimit="10" width="1.189" height="320.48"/>
					</g>
					<g>
						
							<rect x="212.826" y="632.938" transform="matrix(-0.8125 -0.583 0.583 -0.8125 98.5362 1298.7595)" stroke="#000000" stroke-miterlimit="10" width="90.629" height="1.19"/>
					</g>
					<g>
						
							<rect x="141.133" y="552.743" transform="matrix(-0.351 -0.9364 0.9364 -0.351 -173.6754 986.3007)" stroke="#000000" stroke-miterlimit="10" width="227.668" height="1.189"/>
					</g>
					<g>
						
							<rect x="135.254" y="98.381" transform="matrix(0.0821 -0.9966 0.9966 0.0821 -60.0427 305.5486)" stroke="#000000" stroke-miterlimit="10" width="1.19" height="173.976"/>
					</g>
					<g>
						
							<rect x="101.293" y="28.01" transform="matrix(-0.7804 -0.6252 0.6252 -0.7804 111.1408 263.7816)" stroke="#000000" stroke-miterlimit="10" width="1.189" height="168.732"/>
					</g>
					<g>
						
							<rect x="108.062" y="118.928" transform="matrix(-0.4218 -0.9067 0.9067 -0.4218 159.7463 340.9177)" stroke="#000000" stroke-miterlimit="10" width="161.03" height="1.189"/>
					</g>
					<g>
						<polygon stroke="#000000" stroke-miterlimit="10" points="223.017,192.879 222.065,192.167 305.222,79.517 306.174,80.229 
													"/>
					</g>
					<g>
						<polygon stroke="#000000" stroke-miterlimit="10" points="154.608,47.115 154.628,45.927 305.708,79.279 305.688,80.467 
													"/>
					</g>
					<g>
						<polygon stroke="#000000" stroke-miterlimit="10" points="296.896,274.76 305.11,79.789 306.286,79.957 298.073,274.927 
													"/>
					</g>
					<g>
						<polygon stroke="#000000" stroke-miterlimit="10" points="2.454,255.83 2.28,254.654 87.309,235.053 87.483,236.229 						"/>
					</g>
					<g>
						
							<rect x="177.049" y="927.563" transform="matrix(-0.9672 -0.2541 0.2541 -0.9672 297.106 1894.6895)" stroke="#000000" stroke-miterlimit="10" width="187.739" height="1.188"/>
					</g>
					<g>
						<polygon stroke="#000000" stroke-miterlimit="10" points="246.722,1012.098 245.598,1011.712 361.14,951.794 362.263,952.18 
													"/>
					</g>
					<g>
						
							<rect x="188.604" y="874.797" transform="matrix(-0.6725 -0.7401 0.7401 -0.6725 -159.3692 1680.2605)" stroke="#000000" stroke-miterlimit="10" width="206.957" height="1.19"/>
					</g>
				</g>
				<g display="inline">
					<g>
						<circle stroke="#000000" stroke-miterlimit="10" cx="32.021" cy="496.404" r="9.876"/>
					</g>
					<g>
						<path stroke="#000000" stroke-miterlimit="10" d="M44.191,487.87c-4.714-6.723-13.982-8.352-20.705-3.637
							c-6.723,4.714-8.351,13.982-3.637,20.706c4.714,6.723,13.983,8.349,20.705,3.637C47.277,503.861,48.905,494.592,44.191,487.87
							z M22.513,503.07c-3.682-5.25-2.409-12.491,2.841-16.173c5.251-3.683,12.491-2.41,16.173,2.84
							c3.681,5.25,2.41,12.49-2.841,16.172C33.435,509.59,26.194,508.321,22.513,503.07z"/>
					</g>
				</g>
				<g display="inline">
					<g>
						<path stroke="#000000" stroke-miterlimit="10" d="M8.037,263.328c4.467-3.132,5.545-9.29,2.414-13.755
							c-3.131-4.466-9.288-5.549-13.753-2.417c-4.468,3.132-5.546,9.289-2.415,13.755C-2.586,265.377,3.57,266.46,8.037,263.328z"/>
					</g>
					<g>
						<path stroke="#000000" stroke-miterlimit="10" d="M14.537,246.708c-4.714-6.723-13.983-8.351-20.705-3.637
							c-6.723,4.713-8.351,13.982-3.637,20.705c4.714,6.723,13.983,8.35,20.705,3.637C17.624,262.699,19.252,253.43,14.537,246.708z
							 M-7.141,261.908c-3.682-5.25-2.409-12.491,2.841-16.172c5.251-3.682,12.492-2.411,16.174,2.839
							c3.681,5.251,2.409,12.491-2.842,16.173S-3.459,267.159-7.141,261.908z"/>
					</g>
				</g>
				<g display="inline">
					<g>
						<circle stroke="#000000" stroke-miterlimit="10" cx="294.957" cy="659.934" r="7.584"/>
					</g>
					<g>
						<path stroke="#000000" stroke-miterlimit="10" d="M304.302,653.381c-3.62-5.162-10.737-6.412-15.899-2.792
							c-5.162,3.62-6.412,10.737-2.792,15.898c3.62,5.164,10.737,6.413,15.899,2.793
							C306.672,665.66,307.922,658.543,304.302,653.381z M287.655,665.054c-2.828-4.03-1.85-9.592,2.183-12.42
							c4.032-2.827,9.593-1.852,12.419,2.183c2.828,4.031,1.85,9.592-2.182,12.42C296.044,670.062,290.482,669.087,287.655,665.054z
							"/>
					</g>
				</g>
				<g display="inline">
					<g>
						<circle stroke="#000000" stroke-miterlimit="10" cx="92.517" cy="779.344" r="7.583"/>
					</g>
					<g>
						<path stroke="#000000" stroke-miterlimit="10" d="M101.863,772.789c-3.62-5.162-10.737-6.412-15.899-2.792
							c-5.163,3.621-6.412,10.737-2.792,15.9c3.62,5.161,10.736,6.411,15.899,2.792
							C104.233,785.069,105.483,777.953,101.863,772.789z M85.216,784.464c-2.827-4.033-1.85-9.593,2.182-12.421
							c4.032-2.826,9.593-1.852,12.42,2.18c2.828,4.033,1.85,9.595-2.182,12.422C93.604,789.471,88.043,788.496,85.216,784.464z"/>
					</g>
				</g>
				<g display="inline">
					<g>
						<circle stroke="#000000" stroke-miterlimit="10" cx="120.801" cy="1011.527" r="7.584"/>
					</g>
					<g>
						<path stroke="#000000" stroke-miterlimit="10" d="M130.147,1004.974c-3.62-5.163-10.736-6.411-15.898-2.792
							c-5.163,3.62-6.413,10.736-2.792,15.899c3.62,5.162,10.736,6.412,15.899,2.792
							C132.517,1017.253,133.767,1010.136,130.147,1004.974z M113.501,1016.646c-2.829-4.031-1.851-9.593,2.182-12.421
							c4.031-2.825,9.592-1.852,12.419,2.183c2.828,4.031,1.85,9.592-2.182,12.42
							C121.888,1021.654,116.328,1020.68,113.501,1016.646z"/>
					</g>
				</g>
				<g display="inline">
					<g>
						<circle stroke="#000000" stroke-miterlimit="10" cx="87.396" cy="235.641" r="7.583"/>
					</g>
					<g>
						<path stroke="#000000" stroke-miterlimit="10" d="M96.742,229.087c-3.62-5.162-10.736-6.412-15.899-2.792
							c-5.162,3.62-6.412,10.737-2.792,15.898c3.62,5.163,10.737,6.414,15.899,2.793C99.112,241.367,100.362,234.25,96.742,229.087z
							 M80.095,240.76c-2.828-4.032-1.85-9.592,2.182-12.419c4.032-2.827,9.593-1.852,12.42,2.18
							c2.828,4.032,1.85,9.593-2.182,12.42C88.483,245.768,82.922,244.793,80.095,240.76z"/>
					</g>
				</g>
				<g display="inline">
					<g>
						<circle stroke="#000000" stroke-miterlimit="10" cx="215.039" cy="446.76" r="5.584"/>
					</g>
					<g>
						<path stroke="#000000" stroke-miterlimit="10" d="M221.922,441.934c-2.666-3.802-7.907-4.723-11.709-2.056
							c-3.802,2.666-4.723,7.907-2.057,11.708c2.666,3.803,7.907,4.723,11.709,2.057
							C223.667,450.978,224.588,445.736,221.922,441.934z M209.662,450.531c-2.083-2.971-1.363-7.064,1.606-9.146
							c2.97-2.083,7.065-1.363,9.147,1.605c2.083,2.969,1.363,7.063-1.607,9.146C215.839,454.218,211.744,453.5,209.662,450.531z"/>
					</g>
				</g>
				<g display="inline">
					<g>
						<circle stroke="#000000" stroke-miterlimit="10" cx="-21.735" cy="552.254" r="5.584"/>
					</g>
					<g>
						<path stroke="#000000" stroke-miterlimit="10" d="M-14.852,547.427c-2.667-3.802-7.907-4.723-11.708-2.056
							c-3.803,2.666-4.723,7.906-2.057,11.708c2.666,3.803,7.907,4.724,11.709,2.057C-13.106,556.469-12.186,551.229-14.852,547.427
							z M-27.111,556.023c-2.083-2.97-1.363-7.063,1.606-9.147c2.97-2.081,7.065-1.363,9.147,1.606
							c2.082,2.969,1.362,7.064-1.607,9.146C-20.934,559.711-25.029,558.993-27.111,556.023z"/>
					</g>
				</g>
				<g display="inline">
					<g>
						<circle stroke="#000000" stroke-miterlimit="10" cx="26.935" cy="795.642" r="5.585"/>
					</g>
					<g>
						<path stroke="#000000" stroke-miterlimit="10" d="M33.817,790.816c-2.666-3.804-7.907-4.726-11.709-2.058
							c-3.801,2.666-4.722,7.906-2.057,11.709c2.667,3.802,7.908,4.724,11.71,2.058C35.563,799.858,36.484,794.618,33.817,790.816z
							 M21.558,799.413c-2.082-2.969-1.362-7.065,1.607-9.147c2.969-2.082,7.064-1.362,9.147,1.606s1.363,7.063-1.607,9.147
							C27.736,803.101,23.64,802.383,21.558,799.413z"/>
					</g>
				</g>
				<g display="inline">
					<g>
						<circle stroke="#000000" stroke-miterlimit="10" cx="361.141" cy="952.379" r="5.584"/>
					</g>
					<g>
						<path stroke="#000000" stroke-miterlimit="10" d="M368.023,947.553c-2.666-3.802-7.907-4.722-11.708-2.056
							c-3.803,2.666-4.724,7.906-2.057,11.709c2.666,3.802,7.906,4.723,11.708,2.056C369.77,956.596,370.69,951.355,368.023,947.553
							z M355.764,956.149c-2.082-2.971-1.361-7.063,1.608-9.146c2.969-2.082,7.063-1.363,9.146,1.606
							c2.082,2.969,1.363,7.064-1.606,9.146C361.942,959.839,357.846,959.119,355.764,956.149z"/>
					</g>
				</g>
				<g display="inline">
					<g>
						<path stroke="#000000" stroke-miterlimit="10" d="M184.908,900.934c-1.852-2.639-5.492-3.278-8.131-1.429
							c-2.64,1.853-3.279,5.491-1.428,8.131c1.851,2.641,5.492,3.278,8.131,1.43C186.119,907.213,186.758,903.573,184.908,900.934z"
							/>
					</g>
				</g>
				<g display="inline">
					<g>
						<path stroke="#000000" stroke-miterlimit="10" d="M113.709,360.431c-1.852-2.64-5.492-3.279-8.132-1.428
							c-2.639,1.851-3.278,5.492-1.428,8.131c1.852,2.639,5.491,3.278,8.131,1.428C114.92,366.71,115.56,363.07,113.709,360.431z"/>
					</g>
				</g>
				<g display="inline">
					<g>
						<path stroke="#000000" stroke-miterlimit="10" d="M310.477,76.522c-1.851-2.64-5.491-3.279-8.13-1.428
							c-2.639,1.851-3.278,5.491-1.428,8.13c1.851,2.639,5.491,3.279,8.131,1.428C311.689,82.802,312.329,79.162,310.477,76.522z"/>
					</g>
				</g>
				<g display="inline">
					<g>
						<path stroke="#000000" stroke-miterlimit="10" d="M225.679,604.046c-1.85-2.641-5.491-3.28-8.131-1.429
							c-2.639,1.852-3.279,5.492-1.427,8.131c1.851,2.64,5.491,3.277,8.13,1.428C226.891,610.325,227.531,606.685,225.679,604.046z"
							/>
					</g>
				</g>
				<g display="inline">
					<g>
						<path stroke="#000000" stroke-miterlimit="10" d="M250.939,1008.552c-1.852-2.639-5.491-3.276-8.131-1.427
							c-2.639,1.85-3.278,5.49-1.428,8.131c1.851,2.641,5.491,3.278,8.131,1.428C252.15,1014.832,252.789,1011.192,250.939,1008.552
							z"/>
					</g>
				</g>
				<g display="inline">
					<g>
						<path stroke="#000000" stroke-miterlimit="10" d="M54.922,636.763c-1.851-2.639-5.491-3.278-8.131-1.429
							c-2.64,1.852-3.278,5.492-1.428,8.131c1.851,2.641,5.491,3.28,8.131,1.429C56.133,643.043,56.772,639.402,54.922,636.763z"/>
					</g>
				</g>
				<g display="inline">
					<g>
						<circle stroke="#000000" stroke-miterlimit="10" cx="82.968" cy="900.286" r="5.584"/>
					</g>
					<g>
						<path stroke="#000000" stroke-miterlimit="10" d="M89.851,895.459c-2.667-3.803-7.907-4.723-11.709-2.057
							c-3.802,2.666-4.723,7.905-2.057,11.71c2.666,3.801,7.907,4.722,11.708,2.057C91.597,904.502,92.517,899.261,89.851,895.459z
							 M77.591,904.057c-2.082-2.97-1.362-7.064,1.606-9.146c2.97-2.081,7.065-1.364,9.148,1.604
							c2.082,2.971,1.362,7.065-1.607,9.146C83.769,907.745,79.673,907.025,77.591,904.057z"/>
					</g>
				</g>
				<g display="inline">
					<g>
						<circle stroke="#000000" stroke-miterlimit="10" cx="47.989" cy="179.442" r="7.584"/>
					</g>
					<g>
						<path stroke="#000000" stroke-miterlimit="10" d="M57.335,172.888c-3.621-5.162-10.737-6.412-15.899-2.792
							c-5.163,3.62-6.413,10.737-2.792,15.899c3.619,5.162,10.737,6.412,15.898,2.792C59.705,185.168,60.954,178.051,57.335,172.888
							z M40.688,184.562c-2.828-4.033-1.851-9.593,2.182-12.42c4.032-2.827,9.593-1.853,12.42,2.18
							c2.827,4.033,1.85,9.593-2.182,12.421C49.075,189.569,43.515,188.594,40.688,184.562z"/>
					</g>
				</g>
				<g display="inline">
					<g>
						<circle stroke="#000000" stroke-miterlimit="10" cx="222.541" cy="192.523" r="7.583"/>
					</g>
					<g>
						<path stroke="#000000" stroke-miterlimit="10" d="M231.887,185.97c-3.621-5.163-10.737-6.413-15.899-2.792
							c-5.163,3.619-6.413,10.736-2.792,15.899c3.62,5.161,10.736,6.412,15.899,2.792
							C234.257,198.249,235.507,191.132,231.887,185.97z M215.24,197.643c-2.828-4.032-1.85-9.593,2.183-12.42
							c4.031-2.827,9.592-1.851,12.419,2.181c2.828,4.033,1.85,9.593-2.182,12.419C223.628,202.65,218.068,201.675,215.24,197.643z"
							/>
					</g>
				</g>
				<g display="inline">
					<g>
						<path stroke="#000000" stroke-miterlimit="10" d="M230.853,805.848c3.431-2.404,4.259-7.132,1.854-10.562
							c-2.405-3.431-7.131-4.262-10.562-1.856c-3.431,2.407-4.259,7.133-1.855,10.562
							C222.696,807.421,227.422,808.253,230.853,805.848z"/>
					</g>
					<g>
						<path stroke="#000000" stroke-miterlimit="10" d="M235.845,793.085c-3.621-5.162-10.737-6.412-15.899-2.792
							c-5.163,3.621-6.412,10.737-2.792,15.899c3.62,5.161,10.736,6.411,15.899,2.793
							C238.215,805.365,239.465,798.249,235.845,793.085z M219.198,804.759c-2.828-4.032-1.851-9.592,2.182-12.42
							c4.032-2.827,9.592-1.853,12.419,2.18c2.828,4.033,1.851,9.594-2.181,12.421C227.585,809.767,222.025,808.792,219.198,804.759
							z"/>
					</g>
				</g>
				<g display="inline">
					<g>
						<circle stroke="#000000" stroke-miterlimit="10" cx="297.485" cy="274.843" r="7.583"/>
					</g>
					<g>
						<path stroke="#000000" stroke-miterlimit="10" d="M306.831,268.29c-3.621-5.162-10.737-6.412-15.899-2.792
							c-5.163,3.62-6.412,10.737-2.792,15.899c3.62,5.162,10.737,6.413,15.899,2.792C309.201,280.569,310.45,273.452,306.831,268.29
							z M290.184,279.963c-2.828-4.032-1.85-9.592,2.182-12.419c4.032-2.828,9.593-1.852,12.42,2.18
							c2.828,4.032,1.85,9.593-2.182,12.42C298.572,284.971,293.012,283.995,290.184,279.963z"/>
					</g>
				</g>
			</g>
			<g>
				<g>
					<line fill="none" stroke="#000000" stroke-miterlimit="10" x1="1001.46" y1="860.843" x2="760.277" y2="847.388"/>
					<line fill="none" stroke="#000000" stroke-miterlimit="10" x1="760.277" y1="847.388" x2="814.021" y2="957.533"/>
					<line fill="none" stroke="#000000" stroke-miterlimit="10" x1="286.898" y1="929.794" x2="607.681" y2="848.878"/>
					<line fill="none" stroke="#000000" stroke-miterlimit="10" x1="607.681" y1="848.878" x2="356.152" y2="810.553"/>
					<line fill="none" stroke="#000000" stroke-miterlimit="10" x1="356.152" y1="810.553" x2="540.605" y2="643.033"/>
					<line fill="none" stroke="#000000" stroke-miterlimit="10" x1="540.605" y1="643.033" x2="607.681" y2="848.878"/>
					<line fill="none" stroke="#000000" stroke-miterlimit="10" x1="540.605" y1="643.033" x2="276.857" y2="595.362"/>
					<line fill="none" stroke="#000000" stroke-miterlimit="10" x1="276.857" y1="595.362" x2="405.717" y2="556.125"/>
					<line fill="none" stroke="#000000" stroke-miterlimit="10" x1="405.717" y1="556.125" x2="540.605" y2="643.033"/>
					<line fill="none" stroke="#000000" stroke-miterlimit="10" x1="405.717" y1="556.125" x2="312.293" y2="389.917"/>
					<line fill="none" stroke="#000000" stroke-miterlimit="10" x1="276.857" y1="595.362" x2="201.864" y2="404.017"/>
					<line fill="none" stroke="#000000" stroke-miterlimit="10" x1="201.864" y1="404.017" x2="312.293" y2="389.917"/>
					<line fill="none" stroke="#000000" stroke-miterlimit="10" x1="276.857" y1="595.362" x2="107.876" y2="642.507"/>
					<line fill="none" stroke="#000000" stroke-miterlimit="10" x1="107.876" y1="642.507" x2="90.607" y2="537.771"/>
					<line fill="none" stroke="#000000" stroke-miterlimit="10" x1="90.607" y1="537.771" x2="276.857" y2="595.362"/>
					<line fill="none" stroke="#000000" stroke-miterlimit="10" x1="276.857" y1="595.362" x2="286.898" y2="929.794"/>
					<line fill="none" stroke="#000000" stroke-miterlimit="10" x1="12.625" y1="635.956" x2="74" y2="778.476"/>
					<line fill="none" stroke="#000000" stroke-miterlimit="10" x1="74" y1="778.476" x2="232.509" y2="782.425"/>
					<line fill="none" stroke="#000000" stroke-miterlimit="10" x1="286.898" y1="929.794" x2="474.484" y2="992.802"/>
					<line fill="none" stroke="#000000" stroke-miterlimit="10" x1="698.269" y1="752.131" x2="760.277" y2="847.388"/>
					<line fill="none" stroke="#000000" stroke-miterlimit="10" x1="607.681" y1="848.878" x2="748.117" y2="962.626"/>
					<line fill="none" stroke="#000000" stroke-miterlimit="10" x1="748.117" y1="962.626" x2="474.484" y2="992.802"/>
					<line fill="none" stroke="#000000" stroke-miterlimit="10" x1="474.484" y1="992.802" x2="582.56" y2="910.441"/>
					<line fill="none" stroke="#000000" stroke-miterlimit="10" x1="582.56" y1="910.441" x2="356.152" y2="810.553"/>
					<line fill="none" stroke="#000000" stroke-miterlimit="10" x1="582.56" y1="910.441" x2="701.221" y2="924.643"/>
					<line fill="none" stroke="#000000" stroke-miterlimit="10" x1="701.221" y1="924.643" x2="760.212" y2="847.388"/>
					<line fill="none" stroke="#000000" stroke-miterlimit="10" x1="760.212" y1="847.388" x2="582.56" y2="910.441"/>
					<line fill="none" stroke="#000000" stroke-miterlimit="10" x1="107.876" y1="642.507" x2="74" y2="778.476"/>
					<line fill="none" stroke="#000000" stroke-miterlimit="10" x1="107.876" y1="642.507" x2="12.625" y2="635.956"/>
					<line fill="none" stroke="#000000" stroke-miterlimit="10" x1="232.509" y1="782.425" x2="107.876" y2="642.507"/>
					<line fill="none" stroke="#000000" stroke-miterlimit="10" x1="341.287" y1="734.476" x2="698.269" y2="752.131"/>
					<line fill="none" stroke="#000000" stroke-miterlimit="10" x1="698.269" y1="752.131" x2="626.141" y2="613.081"/>
					<line fill="none" stroke="#000000" stroke-miterlimit="10" x1="540.605" y1="643.033" x2="341.287" y2="734.476"/>
					<line fill="none" stroke="#000000" stroke-miterlimit="10" x1="341.287" y1="734.476" x2="232.509" y2="782.425"/>
					<line fill="none" stroke="#000000" stroke-miterlimit="10" x1="341.287" y1="734.476" x2="159.577" y2="539.424"/>
					<line fill="none" stroke="#000000" stroke-miterlimit="10" x1="341.287" y1="734.476" x2="760.212" y2="847.388"/>
					<line fill="none" stroke="#000000" stroke-miterlimit="10" x1="159.577" y1="539.424" x2="312.293" y2="389.917"/>
					<line fill="none" stroke="#000000" stroke-miterlimit="10" x1="159.577" y1="539.424" x2="405.717" y2="556.125"/>
					<line fill="none" stroke="#000000" stroke-miterlimit="10" x1="341.287" y1="734.476" x2="312.293" y2="389.917"/>
					<line fill="none" stroke="#000000" stroke-miterlimit="10" x1="90.607" y1="537.771" x2="312.293" y2="389.917"/>
					<line fill="none" stroke="#000000" stroke-miterlimit="10" x1="748.117" y1="962.626" x2="814.021" y2="957.533"/>
					<line fill="none" stroke="#000000" stroke-miterlimit="10" x1="814.021" y1="957.533" x2="1001.46" y2="860.843"/>
					<line fill="none" stroke="#000000" stroke-miterlimit="10" x1="607.681" y1="848.878" x2="698.269" y2="752.131"/>
					<line fill="none" stroke="#000000" stroke-miterlimit="10" x1="626.141" y1="613.081" x2="701.221" y2="924.643"/>
					<line fill="none" stroke="#000000" stroke-miterlimit="10" x1="626.141" y1="613.081" x2="540.605" y2="643.033"/>
					<line fill="none" stroke="#000000" stroke-miterlimit="10" x1="626.141" y1="613.081" x2="405.717" y2="556.125"/>
					<line fill="none" stroke="#000000" stroke-miterlimit="10" x1="201.864" y1="404.017" x2="90.607" y2="537.771"/>
					<line fill="none" stroke="#000000" stroke-miterlimit="10" x1="90.607" y1="537.771" x2="12.625" y2="635.956"/>
					<line fill="none" stroke="#000000" stroke-miterlimit="10" x1="90.607" y1="537.771" x2="43.326" y2="375.805"/>
					<line fill="none" stroke="#000000" stroke-miterlimit="10" x1="43.326" y1="375.805" x2="201.864" y2="404.017"/>
					<line fill="none" stroke="#000000" stroke-miterlimit="10" x1="201.864" y1="404.017" x2="146.236" y2="234.335"/>
					<line fill="none" stroke="#000000" stroke-miterlimit="10" x1="146.236" y1="234.335" x2="43.326" y2="375.805"/>
					<line fill="none" stroke="#000000" stroke-miterlimit="10" x1="146.236" y1="234.335" x2="312.293" y2="389.917"/>
					<line fill="none" stroke="#000000" stroke-miterlimit="10" x1="159.577" y1="539.424" x2="107.876" y2="642.507"/>
					<line fill="none" stroke="#000000" stroke-miterlimit="10" x1="232.509" y1="782.425" x2="286.898" y2="929.794"/>
					<line fill="none" stroke="#000000" stroke-miterlimit="10" x1="356.152" y1="809.326" x2="286.898" y2="929.794"/>
					<line fill="none" stroke="#000000" stroke-miterlimit="10" x1="760.277" y1="847.388" x2="903.582" y2="726.109"/>
					<line fill="none" stroke="#000000" stroke-miterlimit="10" x1="903.582" y1="726.109" x2="1001.46" y2="860.843"/>
					<line fill="none" stroke="#000000" stroke-miterlimit="10" x1="903.582" y1="726.109" x2="698.269" y2="752.131"/>
					<line fill="none" stroke="#000000" stroke-miterlimit="10" x1="540.605" y1="643.033" x2="474.484" y2="992.802"/>
				</g>
				<g>
					<circle stroke="#000000" stroke-miterlimit="10" cx="286.898" cy="929.794" r="7.309"/>
					<path stroke="#000000" stroke-miterlimit="10" d="M286.898,918.793c-6.077,0-11.001,4.926-11.001,11.001
						c0,6.077,4.925,11.001,11.001,11.001s11.001-4.924,11.001-11.001C297.899,923.719,292.975,918.793,286.898,918.793z
						 M286.898,938.388c-4.746,0-8.593-3.848-8.593-8.594c0-4.745,3.847-8.593,8.593-8.593s8.592,3.848,8.592,8.593
						C295.491,934.54,291.644,938.388,286.898,938.388z"/>
				</g>
				<g>
					<circle stroke="#000000" stroke-miterlimit="10" cx="341.287" cy="734.476" r="9.875"/>
					<path stroke="#000000" stroke-miterlimit="10" d="M341.287,719.61c-8.211,0-14.865,6.654-14.865,14.864
						s6.654,14.864,14.865,14.864s14.865-6.654,14.865-14.864S349.498,719.61,341.287,719.61z M341.287,746.087
						c-6.413,0-11.61-5.198-11.61-11.611c0-6.414,5.198-11.611,11.61-11.611s11.609,5.197,11.609,11.611
						C352.896,740.889,347.7,746.087,341.287,746.087z"/>
				</g>
				<g>
					<circle stroke="#000000" stroke-miterlimit="10" cx="107.876" cy="642.507" r="9.875"/>
					<path stroke="#000000" stroke-miterlimit="10" d="M107.876,627.642c-8.211,0-14.865,6.655-14.865,14.865
						s6.654,14.864,14.865,14.864s14.865-6.654,14.865-14.864S116.087,627.642,107.876,627.642z M107.876,654.119
						c-6.413,0-11.61-5.199-11.61-11.612s5.198-11.61,11.61-11.61s11.61,5.197,11.61,11.61S114.289,654.119,107.876,654.119z"/>
				</g>
				<g>
					<path stroke="#000000" stroke-miterlimit="10" d="M633.724,613.081c0-4.19-3.396-7.582-7.583-7.582
						c-4.189,0-7.584,3.392-7.584,7.582c0,4.188,3.395,7.582,7.584,7.582C630.328,620.663,633.724,617.271,633.724,613.081z"/>
					<path stroke="#000000" stroke-miterlimit="10" d="M626.141,601.666c-6.307,0-11.415,5.109-11.415,11.415
						s5.108,11.414,11.415,11.414c6.306,0,11.414-5.108,11.414-11.414S632.445,601.666,626.141,601.666z M626.141,621.998
						c-4.926,0-8.917-3.992-8.917-8.917s3.991-8.917,8.917-8.917c4.925,0,8.915,3.992,8.915,8.917S631.064,621.998,626.141,621.998z
						"/>
				</g>
				<g>
					<circle stroke="#000000" stroke-miterlimit="10" cx="607.681" cy="847.388" r="7.583"/>
					<path stroke="#000000" stroke-miterlimit="10" d="M607.681,835.974c-6.305,0-11.414,5.108-11.414,11.414
						c0,6.307,5.109,11.414,11.414,11.414c6.306,0,11.415-5.107,11.415-11.414C619.096,841.082,613.985,835.974,607.681,835.974z
						 M607.681,856.305c-4.925,0-8.917-3.992-8.917-8.917s3.992-8.918,8.917-8.918c4.926,0,8.916,3.993,8.916,8.918
						S612.605,856.305,607.681,856.305z"/>
				</g>
				<g>
					<path stroke="#000000" stroke-miterlimit="10" d="M821.606,957.533c0-4.189-3.396-7.582-7.584-7.582
						c-4.188,0-7.583,3.393-7.583,7.582s3.395,7.582,7.583,7.582C818.21,965.115,821.606,961.724,821.606,957.533z"/>
					<path stroke="#000000" stroke-miterlimit="10" d="M814.021,946.119c-6.305,0-11.413,5.109-11.413,11.414
						c0,6.306,5.108,11.414,11.413,11.414c6.307,0,11.415-5.108,11.415-11.414C825.438,951.229,820.328,946.119,814.021,946.119z
						 M814.021,966.45c-4.925,0-8.916-3.993-8.916-8.917c0-4.925,3.991-8.918,8.916-8.918c4.926,0,8.918,3.993,8.918,8.918
						C822.939,962.457,818.947,966.45,814.021,966.45z"/>
				</g>
				<g>
					<path stroke="#000000" stroke-miterlimit="10" d="M167.16,539.424c0-4.189-3.395-7.582-7.583-7.582s-7.583,3.393-7.583,7.582
						s3.395,7.582,7.583,7.582C163.766,547.006,167.16,543.613,167.16,539.424z"/>
					<path stroke="#000000" stroke-miterlimit="10" d="M159.577,528.009c-6.305,0-11.414,5.109-11.414,11.415
						c0,6.305,5.109,11.414,11.414,11.414c6.305,0,11.415-5.109,11.415-11.414C170.991,533.118,165.882,528.009,159.577,528.009z
						 M159.577,548.341c-4.925,0-8.916-3.993-8.916-8.917c0-4.926,3.991-8.918,8.916-8.918c4.925,0,8.916,3.992,8.916,8.918
						C168.493,544.348,164.501,548.341,159.577,548.341z"/>
				</g>
				<g>
					<circle stroke="#000000" stroke-miterlimit="10" cx="405.717" cy="556.125" r="5.585"/>
					<path stroke="#000000" stroke-miterlimit="10" d="M405.717,547.719c-4.644,0-8.406,3.764-8.406,8.406s3.764,8.406,8.406,8.406
						c4.645,0,8.407-3.764,8.407-8.406S410.361,547.719,405.717,547.719z M405.717,562.692c-3.627,0-6.565-2.941-6.565-6.567
						c0-3.627,2.938-6.568,6.565-6.568s6.566,2.941,6.566,6.568C412.284,559.751,409.344,562.692,405.717,562.692z"/>
				</g>
				<g>
					<circle stroke="#000000" stroke-miterlimit="10" cx="356.152" cy="810.553" r="5.585"/>
					<path stroke="#000000" stroke-miterlimit="10" d="M356.152,802.146c-4.645,0-8.406,3.763-8.406,8.405
						c0,4.644,3.763,8.406,8.406,8.406s8.406-3.763,8.406-8.406C364.559,805.909,360.796,802.146,356.152,802.146z M356.152,817.12
						c-3.626,0-6.566-2.94-6.566-6.567s2.94-6.567,6.566-6.567c3.627,0,6.566,2.94,6.566,6.567S359.779,817.12,356.152,817.12z"/>
				</g>
				<g>
					<circle stroke="#000000" stroke-miterlimit="10" cx="583.373" cy="910.441" r="5.584"/>
					<path stroke="#000000" stroke-miterlimit="10" d="M583.372,902.035c-4.644,0-8.406,3.763-8.406,8.406
						c0,4.645,3.763,8.406,8.406,8.406c4.645,0,8.407-3.763,8.407-8.406S588.017,902.035,583.372,902.035z M583.372,917.009
						c-3.627,0-6.565-2.94-6.565-6.566c0-3.628,2.938-6.568,6.565-6.568s6.567,2.94,6.567,6.568
						C589.939,914.067,586.999,917.009,583.372,917.009z"/>
				</g>
				<g>
					<circle stroke="#000000" stroke-miterlimit="10" cx="903.581" cy="726.793" r="5.584"/>
					<path stroke="#000000" stroke-miterlimit="10" d="M903.582,718.387c-4.645,0-8.407,3.764-8.407,8.406
						c0,4.646,3.763,8.406,8.407,8.406c4.644,0,8.406-3.762,8.406-8.406C911.988,722.149,908.227,718.387,903.582,718.387z
						 M903.582,733.36c-3.628,0-6.567-2.94-6.567-6.567c0-3.626,2.939-6.567,6.567-6.567c3.626,0,6.564,2.941,6.564,6.567
						C910.146,730.42,907.208,733.36,903.582,733.36z"/>
				</g>
				<g>
					<path stroke="#000000" stroke-miterlimit="10" d="M760.277,841.551c-3.225,0-5.837,2.613-5.837,5.837
						c0,3.225,2.612,5.837,5.837,5.837c3.224,0,5.838-2.612,5.838-5.837C766.115,844.164,763.501,841.551,760.277,841.551z"/>
				</g>
				<g>
					<path stroke="#000000" stroke-miterlimit="10" d="M474.484,986.964c-3.225,0-5.838,2.614-5.838,5.838
						c0,3.225,2.613,5.837,5.838,5.837c3.224,0,5.837-2.612,5.837-5.837C480.321,989.578,477.708,986.964,474.484,986.964z"/>
				</g>
				<g>
					<path stroke="#000000" stroke-miterlimit="10" d="M232.509,774.613c-3.224,0-5.837,2.611-5.837,5.837
						c0,3.224,2.613,5.837,5.837,5.837c3.224,0,5.837-2.613,5.837-5.837C238.346,777.226,235.733,774.613,232.509,774.613z"/>
				</g>
				<g>
					<path stroke="#000000" stroke-miterlimit="10" d="M74,772.639c-3.224,0-5.837,2.613-5.837,5.837
						c0,3.226,2.613,5.837,5.837,5.837s5.837-2.611,5.837-5.837C79.837,775.252,77.224,772.639,74,772.639z"/>
				</g>
				<g>
					<path stroke="#000000" stroke-miterlimit="10" d="M276.857,589.525c-3.224,0-5.837,2.612-5.837,5.837s2.613,5.838,5.837,5.838
						s5.837-2.613,5.837-5.838C282.694,592.139,280.081,589.525,276.857,589.525z"/>
				</g>
				<g>
					<path stroke="#000000" stroke-miterlimit="10" d="M146.236,228.499c-3.224,0-5.837,2.613-5.837,5.837s2.613,5.837,5.837,5.837
						c3.224,0,5.837-2.613,5.837-5.837S149.459,228.499,146.236,228.499z"/>
				</g>
				<g>
					<path stroke="#000000" stroke-miterlimit="10" d="M540.605,637.714c-3.225,0-5.839,2.613-5.839,5.838s2.614,5.837,5.839,5.837
						c3.224,0,5.837-2.612,5.837-5.837S543.829,637.714,540.605,637.714z"/>
				</g>
				<g>
					<path stroke="#000000" stroke-miterlimit="10" d="M1001.46,855.006c-3.224,0-5.837,2.613-5.837,5.837
						c0,3.226,2.613,5.838,5.837,5.838s5.838-2.612,5.838-5.838C1007.298,857.619,1004.684,855.006,1001.46,855.006z"/>
				</g>
				<g>
					<circle stroke="#000000" stroke-miterlimit="10" cx="701.221" cy="924.643" r="5.584"/>
					<path stroke="#000000" stroke-miterlimit="10" d="M701.221,916.236c-4.643,0-8.405,3.763-8.405,8.405
						c0,4.644,3.764,8.406,8.405,8.406c4.646,0,8.406-3.763,8.406-8.406C709.627,919.999,705.865,916.236,701.221,916.236z
						 M701.221,931.21c-3.626,0-6.565-2.94-6.565-6.567s2.939-6.567,6.565-6.567c3.627,0,6.566,2.94,6.566,6.567
						C707.787,928.269,704.848,931.21,701.221,931.21z"/>
				</g>
				<g>
					<path stroke="#000000" stroke-miterlimit="10" d="M98.521,539.424c0-4.189-3.395-7.582-7.583-7.582
						c-4.189,0-7.583,3.393-7.583,7.582s3.395,7.582,7.583,7.582C95.127,547.006,98.521,543.613,98.521,539.424z"/>
					<path stroke="#000000" stroke-miterlimit="10" d="M90.938,528.009c-6.305,0-11.415,5.109-11.415,11.415
						c0,6.305,5.11,11.414,11.415,11.414s11.415-5.109,11.415-11.414C102.353,533.118,97.243,528.009,90.938,528.009z
						 M90.938,548.341c-4.925,0-8.917-3.993-8.917-8.917c0-4.926,3.991-8.918,8.917-8.918c4.924,0,8.916,3.992,8.916,8.918
						C99.854,544.348,95.863,548.341,90.938,548.341z"/>
				</g>
				<g>
					<circle stroke="#000000" stroke-miterlimit="10" cx="201.865" cy="404.017" r="7.583"/>
					<path stroke="#000000" stroke-miterlimit="10" d="M201.864,392.602c-6.305,0-11.415,5.109-11.415,11.415
						s5.11,11.414,11.415,11.414c6.305,0,11.415-5.108,11.415-11.414S208.169,392.602,201.864,392.602z M201.864,412.934
						c-4.924,0-8.916-3.992-8.916-8.917s3.992-8.917,8.916-8.917c4.925,0,8.917,3.992,8.917,8.917S206.79,412.934,201.864,412.934z"
						/>
				</g>
				<g>
					<path stroke="#000000" stroke-miterlimit="10" d="M708.805,749.34c0-4.188-3.395-7.582-7.584-7.582
						c-4.188,0-7.583,3.394-7.583,7.582c0,4.19,3.396,7.582,7.583,7.582C705.41,756.922,708.805,753.53,708.805,749.34z"/>
					<path stroke="#000000" stroke-miterlimit="10" d="M701.221,737.926c-6.305,0-11.414,5.109-11.414,11.414
						c0,6.307,5.109,11.415,11.414,11.415c6.307,0,11.414-5.108,11.414-11.415C712.635,743.035,707.526,737.926,701.221,737.926z
						 M701.221,758.258c-4.924,0-8.916-3.992-8.916-8.918c0-4.925,3.992-8.917,8.916-8.917c4.926,0,8.917,3.992,8.917,8.917
						C710.138,754.266,706.146,758.258,701.221,758.258z"/>
				</g>
				<g>
					<circle stroke="#000000" stroke-miterlimit="10" cx="312.293" cy="389.917" r="7.583"/>
					<path stroke="#000000" stroke-miterlimit="10" d="M312.293,378.503c-6.305,0-11.415,5.11-11.415,11.415
						c0,6.305,5.109,11.415,11.415,11.415c6.305,0,11.415-5.109,11.415-11.415C323.708,383.613,318.598,378.503,312.293,378.503z
						 M312.293,398.835c-4.925,0-8.917-3.993-8.917-8.917s3.992-8.917,8.917-8.917s8.916,3.993,8.916,8.917
						S317.218,398.835,312.293,398.835z"/>
				</g>
			</g>
		</g>
	</g>
</g>
</svg>
