<?xml version="1.0" encoding="utf-8"?>
<!-- Generator: Adobe Illustrator 16.0.0, SVG Export Plug-In . SVG Version: 6.00 Build 0)  -->
<!DOCTYPE svg PUBLIC "-//W3C//DTD SVG 1.1//EN" "http://www.w3.org/Graphics/SVG/1.1/DTD/svg11.dtd">
<svg version="1.1" xmlns="http://www.w3.org/2000/svg" xmlns:xlink="http://www.w3.org/1999/xlink" x="0px" y="0px" width="1040px"
	 height="1040px" viewBox="0 0 1040 1040" enable-background="new 0 0 1040 1040" xml:space="preserve">
<g id="Background">
</g>
<g id="Objects">
	<g opacity="0.09">
		<g>
			<g display="none" opacity="0.5">
				<g display="inline">
					<g>
						<polygon stroke="#000000" stroke-miterlimit="10" points="200.7,1100.637 122.447,973.102 123.644,972.358 201.896,1099.894 
													"/>
					</g>
					<g>
						
							<rect x="87.188" y="963.655" transform="matrix(0.8748 0.4845 -0.4845 0.8748 513.1061 87.1783)" stroke="#000000" stroke-miterlimit="10" width="1.409" height="145.238"/>
					</g>
					<g>
						
							<rect x="-199.958" y="689.911" transform="matrix(0.4442 0.8959 -0.8959 0.4442 591.3828 427.89)" stroke="#000000" stroke-miterlimit="10" width="301.518" height="1.408"/>
					</g>
					<g>
						
							<rect x="-119.795" y="587.345" transform="matrix(0.9755 0.2201 -0.2201 0.9755 130.1238 8.2936)" stroke="#000000" stroke-miterlimit="10" width="295.281" height="1.408"/>
					</g>
					<g>
						
							<rect x="94.116" y="594.833" transform="matrix(0.7998 0.6002 -0.6002 0.7998 453.0087 87.83)" stroke="#000000" stroke-miterlimit="10" width="1.409" height="256.562"/>
					</g>
					<g>
						
							<rect x="-53.543" y="475.669" transform="matrix(0.4193 0.9078 -0.9078 0.4193 493.5879 181.0417)" stroke="#000000" stroke-miterlimit="10" width="317.622" height="1.408"/>
					</g>
					<g>
						
							<rect x="21.729" y="380.663" transform="matrix(0.7877 0.616 -0.616 0.7877 256.484 18.3991)" stroke="#000000" stroke-miterlimit="10" width="159.63" height="1.409"/>
					</g>
					<g>
						
							<rect x="73.063" y="524.836" transform="matrix(0.0392 0.9992 -0.9992 0.0392 686.6922 336.9419)" stroke="#000000" stroke-miterlimit="10" width="190.156" height="1.409"/>
					</g>
					<g>
						
							<rect x="212.565" y="215.694" transform="matrix(0.9019 0.4319 -0.4319 0.9019 162.8679 -59.8754)" stroke="#000000" stroke-miterlimit="10" width="1.409" height="225.949"/>
					</g>
					<g>
						
							<rect x="105.285" y="108.949" transform="matrix(0.8332 0.553 -0.553 0.8332 145.2771 -20.1222)" stroke="#000000" stroke-miterlimit="10" width="1.408" height="243.55"/>
					</g>
					<g>
						
							<rect x="151.751" y="177.321" transform="matrix(0.6732 0.7395 -0.7395 0.6732 202.7923 -102.8126)" stroke="#000000" stroke-miterlimit="10" width="131.927" height="1.41"/>
					</g>
					<g>
						<polygon stroke="#000000" stroke-miterlimit="10" points="38.224,332.744 -88.059,204.119 -87.166,203.029 39.118,331.655 
													"/>
					</g>
					<g>
						<polygon stroke="#000000" stroke-miterlimit="10" points="-87.119,204.077 -88.105,203.071 -32.664,111.798 -31.679,112.805 
													"/>
					</g>
					<g>
						
							<rect x="-112.264" y="221.546" transform="matrix(0.3066 0.9518 -0.9518 0.3066 213.7974 151.0065)" stroke="#000000" stroke-miterlimit="10" width="231.028" height="1.409"/>
					</g>
					<g>
						
							<rect x="147.459" y="842.893" transform="matrix(0.9279 0.3728 -0.3728 0.9279 350.0418 10.3876)" stroke="#000000" stroke-miterlimit="10" width="1.409" height="134.696"/>
					</g>
					<g>
						
							<rect x="-96.718" y="931.804" transform="matrix(-0.0692 0.9976 -0.9976 -0.0692 941.356 986.6858)" stroke="#000000" stroke-miterlimit="10" width="214.167" height="1.408"/>
					</g>
					<g>
						
							<rect x="-234.242" y="698.668" transform="matrix(0.1948 0.9808 -0.9808 0.1948 615.4296 649.077)" stroke="#000000" stroke-miterlimit="10" width="293.261" height="1.409"/>
					</g>
					<g>
						
							<rect x="-96.384" y="904.886" transform="matrix(0.4728 0.8812 -0.8812 0.4728 784.506 499.9779)" stroke="#000000" stroke-miterlimit="10" width="141.623" height="1.409"/>
					</g>
					<g>
						
							<rect x="64.749" y="912.733" transform="matrix(-0.0406 0.9992 -0.9992 -0.0406 1037.6377 944.3158)" stroke="#000000" stroke-miterlimit="10" width="1.407" height="115.189"/>
					</g>
					<g>
						
							<rect x="-79.722" y="907.225" transform="matrix(0.8149 0.5796 -0.5796 0.8149 532.1176 149.4997)" stroke="#000000" stroke-miterlimit="10" width="223.395" height="1.408"/>
					</g>
					<g>
						
							<rect x="-151.375" y="667.854" transform="matrix(0.533 0.8461 -0.8461 0.533 593.8932 261.115)" stroke="#000000" stroke-miterlimit="10" width="423.561" height="1.41"/>
					</g>
					<g>
						
							<rect x="215.499" y="672.64" transform="matrix(0.8863 0.4631 -0.4631 0.8863 379.0524 -13.0983)" stroke="#000000" stroke-miterlimit="10" width="1.409" height="185.633"/>
					</g>
					<g>
						
							<rect x="-70.24" y="554.253" transform="matrix(0.8632 0.5048 -0.5048 0.8632 288.2979 45.7589)" stroke="#000000" stroke-miterlimit="10" width="259.875" height="1.408"/>
					</g>
					<g>
						
							<rect x="-20.363" y="176.9" transform="matrix(0.9783 0.2073 -0.2073 0.9783 68.9896 11.3495)" stroke="#000000" stroke-miterlimit="10" width="1.409" height="315.912"/>
					</g>
					<g>
						
							<rect x="-221.819" y="730.311" transform="matrix(0.3413 0.94 -0.94 0.3413 710.3583 448.3927)" stroke="#000000" stroke-miterlimit="10" width="514.167" height="1.408"/>
					</g>
					<g>
						
							<rect x="11.004" y="202.87" transform="matrix(0.983 0.1834 -0.1834 0.983 39.6779 -21.7931)" stroke="#000000" stroke-miterlimit="10" width="253.266" height="1.409"/>
					</g>
					<g>
						
							<rect x="-57.396" y="304.737" transform="matrix(0.5174 0.8558 -0.8558 0.5174 304.2308 71.4325)" stroke="#000000" stroke-miterlimit="10" width="292.362" height="1.408"/>
					</g>
					<g>
						
							<rect x="104.121" y="153.202" transform="matrix(0.6408 0.7677 -0.7677 0.6408 312.5582 48.1493)" stroke="#000000" stroke-miterlimit="10" width="1.408" height="409.765"/>
					</g>
					<g>
						
							<rect x="-42.916" y="168.848" transform="matrix(0.9319 0.3626 -0.3626 0.9319 69.3034 -30.1507)" stroke="#000000" stroke-miterlimit="10" width="315.782" height="1.408"/>
					</g>
					<g>
						
							<rect x="-11.32" y="1068.873" transform="matrix(0.6355 0.7721 -0.7721 0.6355 835.9714 368.3583)" stroke="#000000" stroke-miterlimit="10" width="78.336" height="1.409"/>
					</g>
					<g>
						<polygon stroke="#000000" stroke-miterlimit="10" points="200.97,1100.89 52.413,1100.442 53.067,1099.195 201.625,1099.643 
													"/>
					</g>
					<g>
						
							<rect x="-7.041" y="1037.065" transform="matrix(0.8875 0.4607 -0.4607 0.8875 486.3947 121.8211)" stroke="#000000" stroke-miterlimit="10" width="1.409" height="40.318"/>
					</g>
					<g>
						
							<rect x="94.823" y="758.183" transform="matrix(-0.14 0.9902 -0.9902 -0.14 937.3787 859.2405)" stroke="#000000" stroke-miterlimit="10" width="1.409" height="157.066"/>
					</g>
					<g>
						
							<rect x="132.811" y="635.68" transform="matrix(0.7504 0.661 -0.661 0.7504 579.0344 117.8229)" stroke="#000000" stroke-miterlimit="10" width="1.409" height="379.788"/>
					</g>
					<g>
						
							<rect x="161.795" y="651.149" transform="matrix(0.8125 0.583 -0.583 0.8125 420.4379 -3.3942)" stroke="#000000" stroke-miterlimit="10" width="107.399" height="1.408"/>
					</g>
					<g>
						
							<rect x="76.874" y="556.144" transform="matrix(0.351 0.9364 -0.9364 0.351 658.8431 163.0801)" stroke="#000000" stroke-miterlimit="10" width="269.795" height="1.409"/>
					</g>
					<g>
						
							<rect x="69.864" y="17.687" transform="matrix(-0.0821 0.9966 -0.9966 -0.0821 196.7294 60.3606)" stroke="#000000" stroke-miterlimit="10" width="1.41" height="206.177"/>
					</g>
					<g>
						
							<rect x="29.617" y="-65.712" transform="matrix(0.7806 0.625 -0.625 0.7806 28.0664 -11.4344)" stroke="#000000" stroke-miterlimit="10" width="1.409" height="199.952"/>
					</g>
					<g>
						
							<rect x="37.647" y="42.033" transform="matrix(0.4218 0.9067 -0.9067 0.4218 115.6843 -95.9343)" stroke="#000000" stroke-miterlimit="10" width="190.828" height="1.409"/>
					</g>
					<g>
						<polygon stroke="#000000" stroke-miterlimit="10" points="173.872,129.67 172.744,128.826 271.29,-4.671 272.418,-3.827 
													"/>
					</g>
					<g>
						<polygon stroke="#000000" stroke-miterlimit="10" points="92.803,-43.069 92.827,-44.478 271.866,-4.953 271.842,-3.544 
													"/>
					</g>
					<g>
						<polygon stroke="#000000" stroke-miterlimit="10" points="261.424,226.704 271.157,-4.348 272.551,-4.149 262.818,226.902 
													"/>
					</g>
					<g>
						<polygon stroke="#000000" stroke-miterlimit="10" points="-87.509,204.271 -87.715,202.877 13.05,179.648 13.256,181.043 
													"/>
					</g>
					<g>
						
							<rect x="119.394" y="1000.291" transform="matrix(0.9672 0.2541 -0.2541 0.9672 261.9203 -25.7494)" stroke="#000000" stroke-miterlimit="10" width="222.478" height="1.408"/>
					</g>
					<g>
						<polygon stroke="#000000" stroke-miterlimit="10" points="201.964,1100.494 200.631,1100.037 337.556,1029.031 
							338.887,1029.488 						"/>
					</g>
					<g>
						
							<rect x="133.124" y="937.801" transform="matrix(0.6725 0.7401 -0.7401 0.6725 778.3187 118.0636)" stroke="#000000" stroke-miterlimit="10" width="245.256" height="1.41"/>
					</g>
				</g>
				<g display="inline">
					<g>
						<circle stroke="#000000" stroke-miterlimit="10" cx="-52.471" cy="489.366" r="11.703"/>
					</g>
					<g>
						<path stroke="#000000" stroke-miterlimit="10" d="M-38.048,479.252c-5.586-7.967-16.57-9.896-24.537-4.31
							c-7.967,5.587-9.896,16.571-4.31,24.538c5.586,7.967,16.571,9.894,24.537,4.31C-34.39,498.203-32.461,487.219-38.048,479.252z
							 M-63.737,497.266c-4.363-6.221-2.855-14.802,3.367-19.166c6.223-4.363,14.803-2.856,19.166,3.365
							c4.363,6.222,2.856,14.802-3.367,19.166C-50.794,504.994-59.375,503.488-63.737,497.266z"/>
					</g>
				</g>
				<g display="inline">
					<g>
						<path stroke="#000000" stroke-miterlimit="10" d="M-80.893,213.156c5.293-3.711,6.572-11.009,2.861-16.301
							c-3.71-5.292-11.006-6.576-16.299-2.864c-5.294,3.712-6.572,11.008-2.862,16.301
							C-93.481,215.584-86.187,216.868-80.893,213.156z"/>
					</g>
					<g>
						<path stroke="#000000" stroke-miterlimit="10" d="M-73.189,193.461c-5.586-7.967-16.571-9.896-24.537-4.31
							c-7.966,5.586-9.896,16.57-4.31,24.537c5.586,7.967,16.571,9.896,24.537,4.31C-69.532,212.411-67.603,201.427-73.189,193.461z
							 M-98.879,211.474c-4.363-6.221-2.855-14.802,3.367-19.166c6.223-4.363,14.803-2.857,19.167,3.364
							c4.363,6.223,2.854,14.803-3.368,19.167C-85.936,219.202-94.516,217.697-98.879,211.474z"/>
					</g>
				</g>
				<g display="inline">
					<g>
						<path stroke="#000000" stroke-miterlimit="10" d="M264.284,690.518c4.065-2.851,5.047-8.452,2.197-12.517
							c-2.85-4.064-8.452-5.051-12.516-2.2c-4.066,2.851-5.048,8.453-2.197,12.518C254.617,692.382,260.219,693.369,264.284,690.518
							z"/>
					</g>
					<g>
						<path stroke="#000000" stroke-miterlimit="10" d="M270.2,675.394c-4.29-6.118-12.724-7.6-18.842-3.309
							c-6.117,4.29-7.599,12.724-3.309,18.84c4.29,6.12,12.724,7.601,18.841,3.311S274.489,681.511,270.2,675.394z M250.472,689.227
							c-3.351-4.777-2.192-11.367,2.586-14.719c4.778-3.351,11.368-2.194,14.718,2.585c3.351,4.778,2.193,11.367-2.586,14.719
							C260.413,695.161,253.823,694.006,250.472,689.227z"/>
					</g>
				</g>
				<g display="inline">
					<g>
						<circle stroke="#000000" stroke-miterlimit="10" cx="19.221" cy="824.667" r="8.986"/>
					</g>
					<g>
						<path stroke="#000000" stroke-miterlimit="10" d="M30.297,816.899c-4.29-6.117-12.724-7.599-18.842-3.309
							c-6.118,4.291-7.599,12.725-3.309,18.843c4.29,6.117,12.724,7.599,18.842,3.309C33.105,831.452,34.587,823.019,30.297,816.899
							z M10.569,830.734c-3.35-4.779-2.192-11.368,2.586-14.719c4.778-3.35,11.368-2.194,14.719,2.583
							c3.351,4.779,2.192,11.369-2.586,14.72C20.509,836.668,13.92,835.513,10.569,830.734z"/>
					</g>
				</g>
				<g display="inline">
					<g>
						<path stroke="#000000" stroke-miterlimit="10" d="M57.9,1107.178c4.066-2.852,5.047-8.453,2.197-12.518
							c-2.85-4.064-8.451-5.051-12.517-2.2s-5.047,8.453-2.196,12.518C48.233,1109.041,53.834,1110.028,57.9,1107.178z"/>
					</g>
					<g>
						<path stroke="#000000" stroke-miterlimit="10" d="M63.815,1092.053c-4.29-6.119-12.724-7.6-18.841-3.309
							c-6.118,4.289-7.6,12.723-3.31,18.841c4.29,6.118,12.723,7.6,18.841,3.309C66.624,1106.604,68.105,1098.17,63.815,1092.053z
							 M44.088,1105.886c-3.352-4.778-2.193-11.367,2.586-14.719c4.778-3.35,11.368-2.194,14.718,2.585
							c3.351,4.777,2.192,11.367-2.586,14.719C54.028,1111.82,47.438,1110.665,44.088,1105.886z"/>
					</g>
				</g>
				<g display="inline">
					<g>
						<circle stroke="#000000" stroke-miterlimit="10" cx="13.153" cy="180.345" r="8.987"/>
					</g>
					<g>
						<path stroke="#000000" stroke-miterlimit="10" d="M24.228,172.579c-4.29-6.117-12.724-7.598-18.842-3.309
							c-6.117,4.29-7.599,12.724-3.309,18.841c4.29,6.118,12.724,7.6,18.841,3.31C27.037,187.131,28.519,178.697,24.228,172.579z
							 M4.5,186.413c-3.351-4.779-2.192-11.368,2.586-14.718c4.778-3.35,11.368-2.194,14.718,2.583
							c3.352,4.778,2.192,11.368-2.586,14.718C14.441,192.347,7.851,191.191,4.5,186.413z"/>
					</g>
				</g>
				<g display="inline">
					<g>
						<circle stroke="#000000" stroke-miterlimit="10" cx="164.417" cy="430.534" r="6.618"/>
					</g>
					<g>
						<path stroke="#000000" stroke-miterlimit="10" d="M172.574,424.816c-3.16-4.506-9.371-5.598-13.876-2.437
							c-4.506,3.159-5.597,9.37-2.438,13.875c3.16,4.507,9.371,5.597,13.876,2.437C174.643,435.533,175.733,429.321,172.574,424.816
							z M158.045,435.004c-2.468-3.52-1.615-8.372,1.904-10.839c3.52-2.468,8.373-1.617,10.84,1.903
							c2.468,3.519,1.615,8.371-1.904,10.838S160.512,438.522,158.045,435.004z"/>
					</g>
				</g>
				<g display="inline">
					<g>
						<circle stroke="#000000" stroke-miterlimit="10" cx="-116.174" cy="555.551" r="6.618"/>
					</g>
					<g>
						<path stroke="#000000" stroke-miterlimit="10" d="M-108.017,549.831c-3.16-4.506-9.371-5.597-13.875-2.437
							c-4.506,3.16-5.597,9.37-2.438,13.875c3.159,4.507,9.37,5.598,13.876,2.438S-104.857,554.337-108.017,549.831z
							 M-122.545,560.019c-2.468-3.519-1.615-8.371,1.904-10.84c3.52-2.467,8.373-1.616,10.84,1.903
							c2.467,3.519,1.614,8.373-1.905,10.841C-115.225,564.39-120.078,563.538-122.545,560.019z"/>
					</g>
				</g>
				<g display="inline">
					<g>
						<path stroke="#000000" stroke-miterlimit="10" d="M-54.698,849.4c2.994-2.102,3.718-6.227,1.619-9.219
							s-6.224-3.719-9.218-1.619c-2.995,2.1-3.718,6.226-1.62,9.218C-61.817,850.774-57.692,851.499-54.698,849.4z"/>
					</g>
					<g>
						<path stroke="#000000" stroke-miterlimit="10" d="M-50.341,838.263c-3.16-4.507-9.371-5.599-13.876-2.438
							c-4.505,3.16-5.596,9.37-2.437,13.876c3.16,4.506,9.371,5.597,13.877,2.438C-48.272,848.978-47.181,842.768-50.341,838.263z
							 M-64.87,848.45c-2.468-3.519-1.615-8.373,1.905-10.84c3.519-2.468,8.372-1.616,10.84,1.903
							c2.468,3.519,1.615,8.371-1.905,10.84C-57.548,852.82-62.402,851.97-64.87,848.45z"/>
					</g>
				</g>
				<g display="inline">
					<g>
						<circle stroke="#000000" stroke-miterlimit="10" cx="337.557" cy="1029.724" r="6.618"/>
					</g>
					<g>
						<path stroke="#000000" stroke-miterlimit="10" d="M345.713,1024.005c-3.159-4.505-9.371-5.596-13.875-2.437
							c-4.505,3.16-5.596,9.37-2.437,13.876c3.159,4.506,9.37,5.597,13.875,2.437
							C347.783,1034.722,348.874,1028.512,345.713,1024.005z M331.185,1034.192c-2.468-3.52-1.614-8.37,1.905-10.839
							c3.519-2.468,8.372-1.616,10.839,1.903c2.467,3.519,1.615,8.373-1.904,10.84
							C338.506,1038.564,333.652,1037.712,331.185,1034.192z"/>
					</g>
				</g>
				<g display="inline">
					<g>
						<path stroke="#000000" stroke-miterlimit="10" d="M128.71,968.758c-2.194-3.127-6.508-3.886-9.636-1.692
							c-3.128,2.194-3.886,6.508-1.692,9.636c2.194,3.128,6.508,3.885,9.636,1.692C130.146,976.199,130.903,971.887,128.71,968.758z
							"/>
					</g>
				</g>
				<g display="inline">
					<g>
						<path stroke="#000000" stroke-miterlimit="10" d="M44.335,328.229c-2.194-3.128-6.508-3.885-9.636-1.692
							c-3.128,2.194-3.885,6.508-1.692,9.636c2.194,3.127,6.508,3.885,9.636,1.692C45.771,335.671,46.528,331.357,44.335,328.229z"
							/>
					</g>
				</g>
				<g display="inline">
					<g>
						<path stroke="#000000" stroke-miterlimit="10" d="M277.518-8.22c-2.194-3.129-6.508-3.886-9.636-1.692
							c-3.127,2.193-3.885,6.507-1.692,9.635c2.194,3.128,6.507,3.886,9.635,1.692C278.954-0.778,279.711-5.092,277.518-8.22z"/>
					</g>
				</g>
				<g display="inline">
					<g>
						<path stroke="#000000" stroke-miterlimit="10" d="M177.027,616.928c-2.193-3.129-6.507-3.887-9.636-1.692
							c-3.127,2.193-3.885,6.508-1.691,9.635c2.193,3.129,6.507,3.885,9.635,1.692C178.463,624.369,179.221,620.055,177.027,616.928
							z"/>
					</g>
				</g>
				<g display="inline">
					<g>
						<path stroke="#000000" stroke-miterlimit="10" d="M206.961,1096.293c-2.194-3.127-6.507-3.885-9.636-1.691
							c-3.127,2.192-3.885,6.507-1.692,9.636s6.507,3.885,9.635,1.692C208.396,1103.735,209.154,1099.422,206.961,1096.293z"/>
					</g>
				</g>
				<g display="inline">
					<g>
						<path stroke="#000000" stroke-miterlimit="10" d="M-25.331,655.699c-2.194-3.127-6.508-3.886-9.636-1.692
							c-3.128,2.194-3.885,6.509-1.692,9.636c2.193,3.129,6.507,3.887,9.635,1.692C-23.896,663.143-23.138,658.828-25.331,655.699z"
							/>
					</g>
				</g>
				<g display="inline">
					<g>
						<circle stroke="#000000" stroke-miterlimit="10" cx="7.905" cy="967.991" r="6.618"/>
					</g>
					<g>
						<path stroke="#000000" stroke-miterlimit="10" d="M16.062,962.271c-3.16-4.506-9.371-5.597-13.876-2.438
							c-4.505,3.16-5.597,9.37-2.437,13.878c3.159,4.504,9.37,5.595,13.875,2.437C18.131,972.987,19.222,966.776,16.062,962.271z
							 M1.533,972.459c-2.467-3.519-1.614-8.372,1.904-10.84c3.52-2.467,8.373-1.617,10.841,1.902
							c2.467,3.52,1.614,8.373-1.905,10.84C8.854,976.83,4.001,975.978,1.533,972.459z"/>
					</g>
				</g>
				<g display="inline">
					<g>
						<circle stroke="#000000" stroke-miterlimit="10" cx="-33.548" cy="113.746" r="8.987"/>
					</g>
					<g>
						<path stroke="#000000" stroke-miterlimit="10" d="M-22.472,105.979c-4.291-6.117-12.724-7.599-18.842-3.309
							c-6.118,4.291-7.599,12.724-3.309,18.842c4.289,6.117,12.724,7.599,18.841,3.309
							C-19.664,120.532-18.183,112.098-22.472,105.979z M-42.199,119.814c-3.352-4.779-2.193-11.368,2.586-14.718
							c4.778-3.351,11.368-2.195,14.718,2.583c3.351,4.779,2.192,11.368-2.586,14.719C-32.26,125.748-38.849,124.592-42.199,119.814
							z"/>
					</g>
				</g>
				<g display="inline">
					<g>
						<circle stroke="#000000" stroke-miterlimit="10" cx="173.308" cy="129.249" r="8.987"/>
					</g>
					<g>
						<path stroke="#000000" stroke-miterlimit="10" d="M184.384,121.482c-4.291-6.119-12.724-7.6-18.841-3.309
							c-6.119,4.289-7.6,12.724-3.31,18.842c4.29,6.117,12.723,7.599,18.841,3.309C187.192,136.033,188.673,127.6,184.384,121.482z
							 M164.656,135.316c-3.351-4.779-2.192-11.368,2.586-14.719c4.778-3.35,11.368-2.193,14.718,2.584
							c3.351,4.779,2.192,11.368-2.586,14.718C174.596,141.25,168.007,140.094,164.656,135.316z"/>
					</g>
				</g>
				<g display="inline">
					<g>
						<path stroke="#000000" stroke-miterlimit="10" d="M183.158,856.076c4.065-2.851,5.047-8.452,2.197-12.517
							c-2.85-4.065-8.451-5.051-12.516-2.2c-4.065,2.853-5.047,8.453-2.198,12.518C173.492,857.94,179.093,858.926,183.158,856.076z
							"/>
					</g>
					<g>
						<path stroke="#000000" stroke-miterlimit="10" d="M189.074,840.951c-4.291-6.117-12.724-7.599-18.842-3.309
							c-6.118,4.291-7.599,12.725-3.31,18.842s12.724,7.598,18.842,3.31C191.883,855.504,193.364,847.07,189.074,840.951z
							 M169.346,854.785c-3.351-4.778-2.193-11.367,2.586-14.719c4.778-3.35,11.368-2.194,14.718,2.584
							c3.351,4.779,2.193,11.368-2.585,14.718C179.286,860.72,172.696,859.564,169.346,854.785z"/>
					</g>
				</g>
				<g display="inline">
					<g>
						<circle stroke="#000000" stroke-miterlimit="10" cx="262.121" cy="226.803" r="8.987"/>
					</g>
					<g>
						<path stroke="#000000" stroke-miterlimit="10" d="M273.197,219.036c-4.291-6.117-12.724-7.599-18.842-3.309
							c-6.118,4.29-7.599,12.724-3.309,18.842c4.289,6.117,12.724,7.599,18.841,3.309
							C276.005,233.588,277.486,225.154,273.197,219.036z M253.469,232.87c-3.352-4.779-2.193-11.368,2.586-14.718
							c4.778-3.351,11.368-2.195,14.718,2.583c3.351,4.778,2.192,11.368-2.586,14.718
							C263.409,238.805,256.82,237.648,253.469,232.87z"/>
					</g>
				</g>
			</g>
			<g>
				<g>
					<line stroke="#000000" stroke-miterlimit="10" x1="1096.375" y1="921.248" x2="810.559" y2="905.303"/>
					<line stroke="#000000" stroke-miterlimit="10" x1="810.559" y1="905.303" x2="874.25" y2="1035.832"/>
					<line stroke="#000000" stroke-miterlimit="10" x1="249.575" y1="1002.96" x2="629.722" y2="907.069"/>
					<line stroke="#000000" stroke-miterlimit="10" x1="629.722" y1="907.069" x2="331.645" y2="861.651"/>
					<line stroke="#000000" stroke-miterlimit="10" x1="331.645" y1="861.651" x2="550.233" y2="663.131"/>
					<line stroke="#000000" stroke-miterlimit="10" x1="550.233" y1="663.131" x2="629.722" y2="907.069"/>
					<line stroke="#000000" stroke-miterlimit="10" x1="550.233" y1="663.131" x2="237.676" y2="606.638"/>
					<line stroke="#000000" stroke-miterlimit="10" x1="237.676" y1="606.638" x2="390.383" y2="560.139"/>
					<line stroke="#000000" stroke-miterlimit="10" x1="390.383" y1="560.139" x2="550.233" y2="663.131"/>
					<line stroke="#000000" stroke-miterlimit="10" x1="390.383" y1="560.139" x2="279.669" y2="363.173"/>
					<line stroke="#000000" stroke-miterlimit="10" x1="237.676" y1="606.638" x2="148.805" y2="379.881"/>
					<line stroke="#000000" stroke-miterlimit="10" x1="148.805" y1="379.881" x2="279.669" y2="363.173"/>
					<line stroke="#000000" stroke-miterlimit="10" x1="237.676" y1="606.638" x2="37.423" y2="662.507"/>
					<line stroke="#000000" stroke-miterlimit="10" x1="37.423" y1="662.507" x2="16.958" y2="538.39"/>
					<line stroke="#000000" stroke-miterlimit="10" x1="16.958" y1="538.39" x2="237.676" y2="606.638"/>
					<line stroke="#000000" stroke-miterlimit="10" x1="237.676" y1="606.638" x2="249.575" y2="1002.96"/>
					<line stroke="#000000" stroke-miterlimit="10" x1="-75.455" y1="654.744" x2="-2.723" y2="823.638"/>
					<line stroke="#000000" stroke-miterlimit="10" x1="-2.723" y1="823.638" x2="185.121" y2="828.318"/>
					<line stroke="#000000" stroke-miterlimit="10" x1="249.575" y1="1002.96" x2="471.876" y2="1077.628"/>
					<line stroke="#000000" stroke-miterlimit="10" x1="737.074" y1="792.418" x2="810.559" y2="905.303"/>
					<line stroke="#000000" stroke-miterlimit="10" x1="629.722" y1="907.069" x2="796.147" y2="1041.868"/>
					<line stroke="#000000" stroke-miterlimit="10" x1="796.147" y1="1041.868" x2="471.876" y2="1077.628"/>
					<line stroke="#000000" stroke-miterlimit="10" x1="471.876" y1="1077.628" x2="599.952" y2="980.025"/>
					<line stroke="#000000" stroke-miterlimit="10" x1="599.952" y1="980.025" x2="331.645" y2="861.651"/>
					<line stroke="#000000" stroke-miterlimit="10" x1="599.952" y1="980.025" x2="740.573" y2="996.854"/>
					<line stroke="#000000" stroke-miterlimit="10" x1="740.573" y1="996.854" x2="810.48" y2="905.303"/>
					<line stroke="#000000" stroke-miterlimit="10" x1="810.48" y1="905.303" x2="599.952" y2="980.025"/>
					<line stroke="#000000" stroke-miterlimit="10" x1="37.423" y1="662.507" x2="-2.723" y2="823.638"/>
					<line stroke="#000000" stroke-miterlimit="10" x1="37.423" y1="662.507" x2="-75.455" y2="654.744"/>
					<line stroke="#000000" stroke-miterlimit="10" x1="185.121" y1="828.318" x2="37.423" y2="662.507"/>
					<line stroke="#000000" stroke-miterlimit="10" x1="314.029" y1="771.495" x2="737.074" y2="792.418"/>
					<line stroke="#000000" stroke-miterlimit="10" x1="737.074" y1="792.418" x2="651.598" y2="627.636"/>
					<line stroke="#000000" stroke-miterlimit="10" x1="550.233" y1="663.131" x2="314.029" y2="771.495"/>
					<line stroke="#000000" stroke-miterlimit="10" x1="314.029" y1="771.495" x2="185.121" y2="828.318"/>
					<line stroke="#000000" stroke-miterlimit="10" x1="314.029" y1="771.495" x2="98.691" y2="540.347"/>
					<line stroke="#000000" stroke-miterlimit="10" x1="314.029" y1="771.495" x2="810.48" y2="905.303"/>
					<line stroke="#000000" stroke-miterlimit="10" x1="98.691" y1="540.347" x2="279.669" y2="363.173"/>
					<line stroke="#000000" stroke-miterlimit="10" x1="98.691" y1="540.347" x2="390.383" y2="560.139"/>
					<line stroke="#000000" stroke-miterlimit="10" x1="314.029" y1="771.495" x2="279.669" y2="363.173"/>
					<line stroke="#000000" stroke-miterlimit="10" x1="16.958" y1="538.39" x2="279.669" y2="363.173"/>
					<line stroke="#000000" stroke-miterlimit="10" x1="796.147" y1="1041.868" x2="874.25" y2="1035.832"/>
					<line stroke="#000000" stroke-miterlimit="10" x1="874.25" y1="1035.832" x2="1096.375" y2="921.248"/>
					<line stroke="#000000" stroke-miterlimit="10" x1="874.25" y1="1035.832" x2="1096.375" y2="1077.628"/>
					<line stroke="#000000" stroke-miterlimit="10" x1="874.25" y1="1035.832" x2="874.25" y2="1077.628"/>
					<line stroke="#000000" stroke-miterlimit="10" x1="814.769" y1="1077.628" x2="796.147" y2="1041.868"/>
					<line stroke="#000000" stroke-miterlimit="10" x1="629.722" y1="907.069" x2="737.074" y2="792.418"/>
					<line stroke="#000000" stroke-miterlimit="10" x1="651.598" y1="627.636" x2="740.573" y2="996.854"/>
					<line stroke="#000000" stroke-miterlimit="10" x1="651.598" y1="627.636" x2="550.233" y2="663.131"/>
					<line stroke="#000000" stroke-miterlimit="10" x1="651.598" y1="627.636" x2="390.383" y2="560.139"/>
					<line stroke="#000000" stroke-miterlimit="10" x1="148.805" y1="379.881" x2="16.958" y2="538.39"/>
					<line stroke="#000000" stroke-miterlimit="10" x1="16.958" y1="538.39" x2="-75.455" y2="654.744"/>
					<line stroke="#000000" stroke-miterlimit="10" x1="16.958" y1="538.39" x2="-39.073" y2="346.449"/>
					<line stroke="#000000" stroke-miterlimit="10" x1="-39.073" y1="346.449" x2="148.805" y2="379.881"/>
					<line stroke="#000000" stroke-miterlimit="10" x1="148.805" y1="379.881" x2="82.881" y2="178.799"/>
					<line stroke="#000000" stroke-miterlimit="10" x1="82.881" y1="178.799" x2="-39.073" y2="346.449"/>
					<line stroke="#000000" stroke-miterlimit="10" x1="82.881" y1="178.799" x2="279.669" y2="363.173"/>
					<line stroke="#000000" stroke-miterlimit="10" x1="82.881" y1="178.799" x2="-29.249" y2="108.358"/>
					<line stroke="#000000" stroke-miterlimit="10" x1="98.691" y1="540.347" x2="37.423" y2="662.507"/>
					<line stroke="#000000" stroke-miterlimit="10" x1="185.121" y1="828.318" x2="249.575" y2="1002.96"/>
					<line stroke="#000000" stroke-miterlimit="10" x1="331.645" y1="860.198" x2="249.575" y2="1002.96"/>
					<line stroke="#000000" stroke-miterlimit="10" x1="810.559" y1="905.303" x2="980.383" y2="761.581"/>
					<line stroke="#000000" stroke-miterlimit="10" x1="980.383" y1="761.581" x2="1096.375" y2="921.248"/>
					<line stroke="#000000" stroke-miterlimit="10" x1="980.383" y1="761.581" x2="737.074" y2="792.418"/>
					<line stroke="#000000" stroke-miterlimit="10" x1="-2.723" y1="823.638" x2="-29.249" y2="861.651"/>
					<line stroke="#000000" stroke-miterlimit="10" x1="550.233" y1="663.131" x2="471.876" y2="1077.628"/>
				</g>
				<g>
					<circle stroke="#000000" stroke-miterlimit="10" cx="249.575" cy="1002.96" r="8.661"/>
					<path stroke="#000000" stroke-miterlimit="10" d="M249.575,989.923c-7.201,0-13.037,5.837-13.037,13.037
						c0,7.201,5.836,13.037,13.037,13.037c7.201,0,13.037-5.836,13.037-13.037C262.612,995.76,256.776,989.923,249.575,989.923z
						 M249.575,1013.144c-5.625,0-10.183-4.56-10.183-10.184s4.559-10.184,10.183-10.184c5.624,0,10.183,4.56,10.183,10.184
						S255.199,1013.144,249.575,1013.144z"/>
				</g>
				<g>
					<circle stroke="#000000" stroke-miterlimit="10" cx="314.029" cy="771.495" r="11.703"/>
					<path stroke="#000000" stroke-miterlimit="10" d="M314.029,753.879c-9.73,0-17.616,7.887-17.616,17.616
						s7.885,17.615,17.616,17.615s17.616-7.886,17.616-17.615S323.76,753.879,314.029,753.879z M314.029,785.256
						c-7.599,0-13.759-6.161-13.759-13.761c0-7.601,6.16-13.761,13.759-13.761s13.759,6.16,13.759,13.761
						C327.788,779.095,321.628,785.256,314.029,785.256z"/>
				</g>
				<g>
					<circle stroke="#000000" stroke-miterlimit="10" cx="37.423" cy="662.507" r="11.703"/>
					<path stroke="#000000" stroke-miterlimit="10" d="M37.423,644.891c-9.73,0-17.616,7.887-17.616,17.616
						s7.885,17.615,17.616,17.615s17.616-7.886,17.616-17.615S47.154,644.891,37.423,644.891z M37.423,676.268
						c-7.599,0-13.759-6.161-13.759-13.761c0-7.601,6.16-13.761,13.759-13.761s13.759,6.16,13.759,13.761
						C51.182,670.106,45.022,676.268,37.423,676.268z"/>
				</g>
				<g>
					<path stroke="#000000" stroke-miterlimit="10" d="M660.584,627.636c0-4.966-4.023-8.985-8.986-8.985
						c-4.965,0-8.987,4.02-8.987,8.985c0,4.965,4.022,8.985,8.987,8.985C656.561,636.621,660.584,632.601,660.584,627.636z"/>
					<path stroke="#000000" stroke-miterlimit="10" d="M651.598,614.108c-7.473,0-13.527,6.055-13.527,13.527
						c0,7.472,6.055,13.526,13.527,13.526c7.472,0,13.526-6.055,13.526-13.526C665.124,620.163,659.069,614.108,651.598,614.108z
						 M651.598,638.203c-5.837,0-10.566-4.731-10.566-10.567c0-5.837,4.729-10.567,10.566-10.567c5.836,0,10.565,4.73,10.565,10.567
						C662.163,633.472,657.434,638.203,651.598,638.203z"/>
				</g>
				<g>
					<path stroke="#000000" stroke-miterlimit="10" d="M638.709,905.303c0-4.965-4.023-8.985-8.987-8.985s-8.986,4.021-8.986,8.985
						c0,4.966,4.022,8.985,8.986,8.985S638.709,910.269,638.709,905.303z"/>
					<path stroke="#000000" stroke-miterlimit="10" d="M629.722,891.776c-7.472,0-13.526,6.055-13.526,13.526
						c0,7.473,6.055,13.527,13.526,13.527s13.527-6.055,13.527-13.527C643.249,897.831,637.193,891.776,629.722,891.776z
						 M629.722,915.87c-5.836,0-10.566-4.731-10.566-10.567s4.73-10.567,10.566-10.567s10.566,4.731,10.566,10.567
						S635.558,915.87,629.722,915.87z"/>
				</g>
				<g>
					<path stroke="#000000" stroke-miterlimit="10" d="M883.237,1035.832c0-4.965-4.023-8.985-8.987-8.985s-8.986,4.021-8.986,8.985
						c0,4.966,4.022,8.985,8.986,8.985S883.237,1040.798,883.237,1035.832z"/>
					<path stroke="#000000" stroke-miterlimit="10" d="M874.25,1022.306c-7.472,0-13.526,6.055-13.526,13.526
						c0,7.473,6.055,13.527,13.526,13.527c7.473,0,13.527-6.055,13.527-13.527C887.777,1028.36,881.723,1022.306,874.25,1022.306z
						 M874.25,1046.399c-5.836,0-10.566-4.731-10.566-10.567s4.73-10.567,10.566-10.567s10.566,4.731,10.566,10.567
						S880.086,1046.399,874.25,1046.399z"/>
				</g>
				<g>
					<path stroke="#000000" stroke-miterlimit="10" d="M107.678,540.347c0-4.966-4.023-8.985-8.987-8.985s-8.987,4.02-8.987,8.985
						c0,4.965,4.023,8.985,8.987,8.985S107.678,545.312,107.678,540.347z"/>
					<path stroke="#000000" stroke-miterlimit="10" d="M98.691,526.819c-7.472,0-13.527,6.055-13.527,13.527
						c0,7.472,6.055,13.526,13.527,13.526c7.472,0,13.527-6.055,13.527-13.526C112.218,532.874,106.163,526.819,98.691,526.819z
						 M98.691,550.914c-5.836,0-10.566-4.731-10.566-10.567c0-5.837,4.73-10.568,10.566-10.568c5.836,0,10.566,4.731,10.566,10.568
						C109.257,546.183,104.527,550.914,98.691,550.914z"/>
				</g>
				<g>
					<circle stroke="#000000" stroke-miterlimit="10" cx="390.383" cy="560.139" r="6.618"/>
					<path stroke="#000000" stroke-miterlimit="10" d="M390.383,550.177c-5.503,0-9.962,4.459-9.962,9.962s4.459,9.962,9.962,9.962
						c5.503,0,9.962-4.459,9.962-9.962S395.886,550.177,390.383,550.177z M390.383,567.922c-4.298,0-7.781-3.485-7.781-7.783
						s3.483-7.783,7.781-7.783c4.298,0,7.782,3.485,7.782,7.783S394.681,567.922,390.383,567.922z"/>
				</g>
				<g>
					<circle stroke="#000000" stroke-miterlimit="10" cx="331.645" cy="861.651" r="6.618"/>
					<path stroke="#000000" stroke-miterlimit="10" d="M331.645,851.689c-5.503,0-9.962,4.459-9.962,9.962s4.459,9.962,9.962,9.962
						c5.503,0,9.962-4.459,9.962-9.962S337.148,851.689,331.645,851.689z M331.645,869.435c-4.298,0-7.782-3.485-7.782-7.783
						s3.484-7.783,7.782-7.783s7.782,3.485,7.782,7.783S335.943,869.435,331.645,869.435z"/>
				</g>
				<g>
					<circle stroke="#000000" stroke-miterlimit="10" cx="600.916" cy="980.025" r="6.618"/>
					<path stroke="#000000" stroke-miterlimit="10" d="M600.915,970.063c-5.503,0-9.962,4.459-9.962,9.962
						c0,5.504,4.459,9.963,9.962,9.963c5.504,0,9.963-4.459,9.963-9.963C610.878,974.522,606.419,970.063,600.915,970.063z
						 M600.915,987.809c-4.298,0-7.781-3.485-7.781-7.783s3.483-7.783,7.781-7.783s7.782,3.485,7.782,7.783
						S605.213,987.809,600.915,987.809z"/>
				</g>
				<g>
					<circle stroke="#000000" stroke-miterlimit="10" cx="980.382" cy="762.392" r="6.618"/>
					<path stroke="#000000" stroke-miterlimit="10" d="M980.383,752.429c-5.504,0-9.963,4.459-9.963,9.963
						c0,5.503,4.459,9.962,9.963,9.962c5.503,0,9.962-4.459,9.962-9.962C990.345,756.888,985.886,752.429,980.383,752.429z
						 M980.383,770.174c-4.299,0-7.782-3.484-7.782-7.782s3.483-7.783,7.782-7.783c4.298,0,7.781,3.485,7.781,7.783
						S984.681,770.174,980.383,770.174z"/>
				</g>
				<g>
					<path stroke="#000000" stroke-miterlimit="10" d="M810.559,898.386c-3.82,0-6.917,3.097-6.917,6.917s3.097,6.918,6.917,6.918
						s6.918-3.098,6.918-6.918S814.379,898.386,810.559,898.386z"/>
				</g>
				<g>
					<path stroke="#000000" stroke-miterlimit="10" d="M471.876,1070.71c-3.821,0-6.917,3.098-6.917,6.918s3.097,6.917,6.917,6.917
						c3.82,0,6.917-3.097,6.917-6.917S475.696,1070.71,471.876,1070.71z"/>
				</g>
				<g>
					<path stroke="#000000" stroke-miterlimit="10" d="M185.121,819.061c-3.821,0-6.917,3.097-6.917,6.918
						c0,3.82,3.097,6.917,6.917,6.917s6.917-3.097,6.917-6.917C192.038,822.157,188.941,819.061,185.121,819.061z"/>
				</g>
				<g>
					<path stroke="#000000" stroke-miterlimit="10" d="M-2.723,816.721c-3.821,0-6.917,3.097-6.917,6.917
						c0,3.821,3.097,6.918,6.917,6.918s6.917-3.097,6.917-6.918C4.195,819.817,1.098,816.721-2.723,816.721z"/>
				</g>
				<g>
					<path stroke="#000000" stroke-miterlimit="10" d="M237.676,599.721c-3.821,0-6.917,3.097-6.917,6.917
						c0,3.821,3.097,6.918,6.917,6.918c3.82,0,6.917-3.097,6.917-6.918C244.593,602.817,241.496,599.721,237.676,599.721z"/>
				</g>
				<g>
					<path stroke="#000000" stroke-miterlimit="10" d="M82.881,171.881c-3.821,0-6.917,3.097-6.917,6.917s3.097,6.917,6.917,6.917
						c3.82,0,6.917-3.097,6.917-6.917S86.702,171.881,82.881,171.881z"/>
				</g>
				<g>
					<path stroke="#000000" stroke-miterlimit="10" d="M550.233,656.827c-3.82,0-6.918,3.097-6.918,6.918
						c0,3.82,3.098,6.917,6.918,6.917s6.918-3.097,6.918-6.917C557.151,659.924,554.054,656.827,550.233,656.827z"/>
				</g>
				<g>
					<path stroke="#000000" stroke-miterlimit="10" d="M1096.375,914.331c-3.82,0-6.918,3.097-6.918,6.917
						c0,3.821,3.098,6.918,6.918,6.918s6.918-3.097,6.918-6.918C1103.293,917.428,1100.195,914.331,1096.375,914.331z"/>
				</g>
				<g>
					<circle stroke="#000000" stroke-miterlimit="10" cx="740.573" cy="996.854" r="6.618"/>
					<path stroke="#000000" stroke-miterlimit="10" d="M740.573,986.893c-5.503,0-9.962,4.459-9.962,9.962s4.459,9.962,9.962,9.962
						s9.962-4.459,9.962-9.962S746.076,986.893,740.573,986.893z M740.573,1004.638c-4.298,0-7.782-3.485-7.782-7.783
						s3.484-7.783,7.782-7.783s7.781,3.485,7.781,7.783S744.871,1004.638,740.573,1004.638z"/>
				</g>
				<g>
					<path stroke="#000000" stroke-miterlimit="10" d="M26.337,540.347c0-4.966-4.022-8.985-8.986-8.985
						c-4.964,0-8.987,4.02-8.987,8.985c0,4.965,4.022,8.985,8.987,8.985C22.314,549.332,26.337,545.312,26.337,540.347z"/>
					<path stroke="#000000" stroke-miterlimit="10" d="M17.351,526.819c-7.472,0-13.527,6.055-13.527,13.527
						c0,7.472,6.055,13.526,13.527,13.526c7.472,0,13.527-6.055,13.527-13.526C30.877,532.874,24.822,526.819,17.351,526.819z
						 M17.351,550.914c-5.836,0-10.566-4.731-10.566-10.567c0-5.837,4.73-10.568,10.566-10.568c5.836,0,10.566,4.731,10.566,10.568
						C27.917,546.183,23.187,550.914,17.351,550.914z"/>
				</g>
				<g>
					<path stroke="#000000" stroke-miterlimit="10" d="M157.792,379.881c0-4.965-4.022-8.985-8.987-8.985
						c-4.964,0-8.986,4.02-8.986,8.985s4.022,8.985,8.986,8.985C153.769,388.866,157.792,384.846,157.792,379.881z"/>
					<path stroke="#000000" stroke-miterlimit="10" d="M148.805,366.354c-7.472,0-13.527,6.055-13.527,13.527
						c0,7.472,6.055,13.527,13.527,13.527c7.472,0,13.527-6.055,13.527-13.527C162.332,372.409,156.277,366.354,148.805,366.354z
						 M148.805,390.448c-5.836,0-10.566-4.731-10.566-10.567c0-5.836,4.73-10.567,10.566-10.567c5.836,0,10.566,4.731,10.566,10.567
						C159.371,385.717,154.641,390.448,148.805,390.448z"/>
				</g>
				<g>
					<path stroke="#000000" stroke-miterlimit="10" d="M749.56,789.11c0-4.965-4.022-8.985-8.986-8.985s-8.987,4.021-8.987,8.985
						c0,4.966,4.023,8.985,8.987,8.985S749.56,794.076,749.56,789.11z"/>
					<path stroke="#000000" stroke-miterlimit="10" d="M740.573,775.584c-7.472,0-13.527,6.055-13.527,13.526
						c0,7.473,6.056,13.527,13.527,13.527s13.526-6.055,13.526-13.527C754.1,781.639,748.045,775.584,740.573,775.584z
						 M740.573,799.679c-5.836,0-10.566-4.731-10.566-10.568c0-5.836,4.73-10.567,10.566-10.567s10.566,4.731,10.566,10.567
						C751.14,794.947,746.409,799.679,740.573,799.679z"/>
				</g>
				<g>
					<path stroke="#000000" stroke-miterlimit="10" d="M288.656,363.173c0-4.965-4.023-8.985-8.987-8.985s-8.987,4.02-8.987,8.985
						s4.023,8.985,8.987,8.985S288.656,368.138,288.656,363.173z"/>
					<path stroke="#000000" stroke-miterlimit="10" d="M279.669,349.646c-7.472,0-13.527,6.055-13.527,13.527
						c0,7.472,6.055,13.527,13.527,13.527c7.472,0,13.527-6.055,13.527-13.527C293.196,355.701,287.141,349.646,279.669,349.646z
						 M279.669,373.741c-5.836,0-10.566-4.731-10.566-10.568c0-5.836,4.73-10.567,10.566-10.567c5.836,0,10.566,4.731,10.566,10.567
						C290.235,369.009,285.505,373.741,279.669,373.741z"/>
				</g>
			</g>
		</g>
	</g>
</g>
</svg>
