<svg xmlns="http://www.w3.org/2000/svg" width="1039.736" height="1039.732"><path opacity=".09" d="M369.389 280.012l84.574-30.802 60.324-111.685-59.677-59.682c-104.63-98.538-269.105-96.968-371.422 5.347-101.951 101.947-103.893 265.612-6.455 370.312l272.66 272.654c24.678 24.68 24.678 64.698-.003 89.374-24.679 24.681-64.696 24.681-89.375 0l-115.552-115.542-144.463 144.46s115.727 115.727 117.089 117.093c104.256 104.255 273.283 104.256 377.54-.001 103.342-103.343 104.033-270.167 2.497-374.618l-269.089-269.508c-24.677-24.679-24.676-64.693 0-89.372 24.68-24.681 64.698-24.681 89.378 0l51.974 51.97zm330.597-135.546l120.944 120.942c24.676 24.676 24.676 64.698 0 89.376-24.685 24.678-64.701 24.678-89.382 0l-118.641-118.64-60.323 111.681-84.576 30.808 117.67 117.663c104.374 102.573 272.167 102.019 375.867-1.67 104.252-104.26 104.252-273.28 0-377.535-1.365-1.361-117.091-117.091-117.091-117.091l-144.468 144.466z"/></svg>